<?xml version="1.0" encoding="UTF-8" standalone="no"?>
<svg width="166px" height="214px" viewBox="0 0 166 214" version="1.1" xmlns="http://www.w3.org/2000/svg" xmlns:xlink="http://www.w3.org/1999/xlink">
    <!-- Generator: Sketch 43.1 (39012) - http://www.bohemiancoding.com/sketch -->
    <title>mdpi/错误icon</title>
    <desc>Created with Sketch.</desc>
    <defs>
        <path d="M53.6543762,5.82656389 C53.6543762,5.82656389 51.7206066,16.6838307 49.9435605,19.4290619 C48.1665144,22.1742932 38.3042601,21.5624894 38.3042601,21.5624894 C38.3042601,21.5624894 46.3255113,26.1583729 47.6291406,29.1273193 C48.9327699,32.0962658 47.0624342,38.4353322 47.0624342,38.4353322 C47.0624342,38.4353322 54.1968817,36.4499573 58.6777009,38.3343678 C63.1585202,40.2187783 66.5518202,46.6316019 66.5518202,46.6316019 C66.5518202,46.6316019 70.0541247,39.134431 72.4347192,38.1698752 C74.8153138,37.2053193 87.1867942,38.2708396 87.1867942,38.2708396 C87.1867942,38.2708396 78.2133602,29.140124 77.6988901,27.0728634 C77.1844199,25.0056028 82.005637,17.4517473 82.005637,17.4517473 C82.005637,17.4517473 71.0028684,19.2398926 65.8479181,18.3287727 C60.6929679,17.4176527 53.6543762,5.82656389 53.6543762,5.82656389 Z" id="path-1"></path>
        <rect id="path-2" x="3.29183765" y="6.50108773" width="1.03964959" height="5.26457788"></rect>
        <rect id="path-3" x="2.25036448" y="11.0523169" width="1" height="4.35394302"></rect>
    </defs>
    <g id="空页面" stroke="none" stroke-width="1" fill="none" fill-rule="evenodd">
        <g id="Artboard" transform="translate(-102.000000, -150.000000)">
            <g id="错误icon" transform="translate(92.000000, 143.000000)">
                <ellipse id="Oval-8" fill="#E3E3E3" cx="105.214996" cy="217.263437" rx="70.2149963" ry="3.26343728"></ellipse>
                <g id="Group-2-Copy" transform="translate(30.500000, 103.000000) scale(-1, 1) translate(-30.500000, -103.000000) translate(13.000000, 97.000000)" fill="#F5F5F5">
                    <ellipse id="Oval-4" cx="18.7962963" cy="5.84210526" rx="7.12962963" ry="5.84210526"></ellipse>
                    <ellipse id="Oval-4-Copy" cx="9.88425926" cy="8.21052632" rx="4.375" ry="3.47368421"></ellipse>
                    <ellipse id="Oval-4-Copy-2" cx="27.3842593" cy="8.52631579" rx="5.02314815" ry="3.47368421"></ellipse>
                    <path d="M0.30221753,11.8869035 L34.5635455,11.8118322 C34.5635455,11.8118322 35.6903541,8.50144395 32.2715067,7.88972709 C28.8526593,7.27801024 2.66602002,8.64680338 1.53810961,9.18752675 C0.410199206,9.72825013 0.30221753,11.8869035 0.30221753,11.8869035 Z" id="Path-28"></path>
                </g>
                <path d="M59.7868029,124.76549 C72.9232066,124.76549 105.587437,79.7124986 105.587437,55.0552618 C105.587437,30.3980249 85.0817949,10.409385 59.7868029,10.409385 C34.4918109,10.409385 13.9861683,30.3980249 13.9861683,55.0552618 C13.9861683,79.7124986 46.6503992,124.76549 59.7868029,124.76549 Z" id="Oval-Copy-5" fill="#BDBDBD" transform="translate(59.786803, 67.587438) rotate(-16.000000) translate(-59.786803, -67.587438) "></path>
                <path d="M59.1437211,124.846182 C60.5133462,124.846182 62.2826504,123.110028 64.2419357,120.132826 C72.2634512,107.943856 83.4693693,74.952841 83.4693693,55.1359533 C83.4693693,30.4787164 72.5784057,10.4900766 59.1437211,10.4900766 C45.7090366,10.4900766 34.8180729,30.4787164 34.8180729,55.1359533 C34.8180729,74.525894 45.5463383,106.528415 53.522755,119.316379 C55.6895564,122.790243 57.6532871,124.846182 59.1437211,124.846182 Z" id="Oval-Copy-6" fill="#F2F2F2" transform="translate(59.143721, 67.668129) rotate(-16.000000) translate(-59.143721, -67.668129) "></path>
                <g id="Path-3" transform="translate(62.745527, 26.229083) rotate(-7.000000) translate(-62.745527, -26.229083) ">
                    <use fill="#FFFFFF" fill-rule="evenodd" xlink:href="#path-1"></use>
                    <path stroke-opacity="0.505349864" stroke="#D8D8D8" stroke-width="0.5" d="M53.7836489,6.50412837 C54.0576266,6.93432026 54.3713497,7.41329577 54.7199686,7.92891621 C55.7188968,9.40636816 56.7992926,10.8839041 57.9223493,12.2638126 C59.4205328,14.1046424 60.8794632,15.6283943 62.259234,16.7286944 C63.5396524,17.7497658 64.7255561,18.3842739 65.8044059,18.5749569 C67.4617138,18.8678805 69.795635,18.9061488 72.6380687,18.7392137 C74.2934729,18.6419925 76.0569865,18.478722 77.8595896,18.2679225 C78.9241448,18.1434315 79.9367597,18.0100528 80.8641834,17.8766593 C81.0950776,17.8434492 81.3088841,17.811921 81.5041072,17.7824733 C81.3825831,17.9792758 81.2513933,18.1942887 81.1125206,18.4249691 C80.6014606,19.273887 80.0903866,20.1613828 79.613131,21.044157 C79.3593048,21.5136563 79.1215626,21.9700592 78.9027887,22.4097043 C77.7899393,24.6460706 77.2418234,26.2714622 77.4562898,27.1332382 C77.6710295,27.996112 79.1440004,29.9068376 81.5665705,32.6316198 C81.7867611,32.8792789 82.013374,33.1319409 82.2458967,33.3891309 C83.2878446,34.5416139 84.4039036,35.7365361 85.5199239,36.9050613 C85.8880391,37.2904952 86.231387,37.6470703 86.542198,37.9675702 C86.4430063,37.9597926 86.3356469,37.9514719 86.2205516,37.9426679 C85.4458529,37.8834085 84.6018897,37.8241532 83.7171238,37.7688469 C82.3023319,37.6804089 80.9204657,37.6106987 79.6223932,37.5667908 C75.9016228,37.4409341 73.3334221,37.5360025 72.3408389,37.9381717 C71.7489699,38.1779819 71.0947886,38.7709594 70.3751777,39.6684329 C69.8192938,40.3617119 69.2345968,41.2250195 68.6326159,42.2204986 C68.0628928,43.1626339 67.5085509,44.1710985 66.9912631,45.179447 C66.8233671,45.5067264 66.6705474,45.8123716 66.5349909,46.0897271 C66.365139,45.7954839 66.1684862,45.4699523 65.9465952,45.1206696 C65.2848247,44.0789649 64.5345898,43.0372372 63.709692,42.0639563 C62.13528,40.2063385 60.4796214,38.820958 58.7746169,38.1039176 C57.6116107,37.6148148 56.2221242,37.3538583 54.6536571,37.2885584 C52.8767635,37.214581 50.9771048,37.3919319 49.0971051,37.7328017 C48.5418154,37.8334833 48.0296601,37.9413832 47.5724888,38.0493568 C47.5179067,38.0622479 47.4664268,38.0745789 47.4181417,38.0862943 C47.4329491,38.0303284 47.4486732,37.9701749 47.4652207,37.9060129 C47.586732,37.4348619 47.70819,36.9164844 47.8215563,36.3662329 C48.0564825,35.2259595 48.2253966,34.1023113 48.2997443,33.0486186 C48.4171825,31.3842256 48.2910165,30.0128764 47.8580462,29.0268096 C47.5216496,28.2606841 46.7673737,27.3775017 45.6588419,26.3895975 C44.9604149,25.7671715 44.1327153,25.113906 43.2023001,24.4405439 C42.1577701,23.6845943 41.039497,22.9427111 39.9213213,22.2458457 C39.6987362,22.107127 39.4851764,21.9758512 39.2823463,21.8527364 C40.8930235,21.8990007 42.6345768,21.8671369 44.2843829,21.7069956 C47.3019588,21.4140894 49.3854408,20.7513219 50.1534279,19.5649135 C50.2911124,19.3522147 50.430365,19.0928121 50.5717702,18.788078 C51.151126,17.5395424 51.7627949,15.5437763 52.3886266,12.999876 C52.7724022,11.4398928 53.1380186,9.76927429 53.4733618,8.0987648 C53.5891048,7.52219229 53.6930219,6.98620919 53.7836489,6.50412837 Z"></path>
                </g>
                <polygon id="Path-24-Copy" fill="#FFFFFF" points="63 119.870088 87.8427716 114 85.8951334 126.541222 66.1896016 130.076097"></polygon>
                <path d="M73.8194967,118 C73.8194967,118 74.6225522,124.670754 79.9567749,126.501832 C85.2909977,128.332911 121.129763,125.99647 127.06538,126.839609 C133.000998,127.682748 134.246477,131.151581 127.098855,134.144024 C119.951232,137.136467 86.6241676,139.104271 78.626177,139.104271 C70.6281864,139.104271 66.7161207,146.518003 78.0905904,148.962275 C86.3775232,150.743063 95.4893551,149.635083 99.3061676,150.103365 C101.897764,150.421327 115.865309,154.299147 105.622287,164.076297" id="Path-21-Copy-3" stroke="#BDBDBD" stroke-dasharray="4,1,5,2"></path>
                <path d="M68.030461,120.526875 C68.030461,120.526875 81.079968,119.862653 84.2023833,115.716739 C87.3247986,111.570824 62.6301958,116.237212 62.6301958,116.237212 L62.418982,118.612533 C62.418982,118.612533 61.554186,119.370357 62.3094592,119.8346 C63.0647323,120.298843 68.030461,120.526875 68.030461,120.526875 Z" id="Path-25-Copy" fill="#BDBDBD"></path>
                <path d="M55.5476272,112.848336 C55.5476272,112.848336 63.2899099,109.893624 71.0901224,109.932138 C78.8903349,109.970653 87.1229239,113.004244 87.1229239,113.004244 L84.1986174,117.138445 C84.1986174,117.138445 83.8283704,117.707296 83.1880289,118.133453 C82.5476874,118.559611 81.8561758,118.712177 81.8561758,118.712177 C81.8561758,118.712177 76.2174644,117.498418 71.9648945,117.492749 C67.7123246,117.48708 63.5821428,118.419451 63.5821428,118.419451 C63.5821428,118.419451 62.668906,118.397931 61.8418298,118.03079 C61.0147535,117.663648 60.5120272,117.151333 60.5120272,117.151333 L55.5476272,112.848336 Z" id="Rectangle-3-Copy" fill="#F6F6F6" transform="translate(71.335276, 114.321971) rotate(-11.000000) translate(-71.335276, -114.321971) "></path>
                <g id="Group" transform="translate(106.944978, 171.712773) rotate(-13.000000) translate(-106.944978, -171.712773) translate(90.944978, 161.712773)">
                    <rect id="Rectangle-5-Copy" fill="#BDBDBD" x="3.46260614" y="3.91468297" width="26.4432567" height="15.6587319"></rect>
                    <rect id="Rectangle-5" fill="#BDBDBD" x="0.852817492" y="-1.13686838e-13" width="31.1084639" height="5.28865134"></rect>
                    <path d="M0.821751427,5.67107755 L31.9322499,5.67107755" id="Path-2" stroke="#FFFFFF"></path>
                </g>
                <path d="M112,125.5 L116.330127,123" id="Path-27" stroke="#BDBDBD" stroke-linecap="round"></path>
                <path d="M115.5,126.330127 L113,122" id="Path-27" stroke="#BDBDBD" stroke-linecap="round"></path>
                <g id="Group-2" transform="translate(91.000000, 31.000000)" fill="#F5F5F5">
                    <ellipse id="Oval-4" cx="27.9259259" cy="8.76315789" rx="10.5925926" ry="8.76315789"></ellipse>
                    <ellipse id="Oval-4-Copy" cx="14.6851852" cy="12.3157895" rx="6.5" ry="5.21052632"></ellipse>
                    <ellipse id="Oval-4-Copy-2" cx="40.6851852" cy="12.7894737" rx="7.46296296" ry="5.21052632"></ellipse>
                    <path d="M0.449008901,17.8303553 L51.3515533,17.7177482 C51.3515533,17.7177482 53.025669,12.7521659 47.9462386,11.8345906 C42.8668082,10.9170154 10.5051169,10.8345906 5.28519142,12.7812901 C0.0652659519,14.7279896 0.449008901,17.8303553 0.449008901,17.8303553 Z" id="Path-28"></path>
                </g>
                <text id="＃" font-family="PingFangSC-Semibold, PingFang SC" font-size="6" font-weight="500" line-spacing="10" fill="#BDBDBD">
                    <tspan x="73" y="137">＃</tspan>
                </text>
                <g id="Group-3-Copy" transform="translate(47.000000, 205.000000)">
                    <g id="Rectangle" transform="translate(3.811662, 9.133377) scale(-1, 1) translate(-3.811662, -9.133377) ">
                        <use fill="#E0E0E0" fill-rule="evenodd" xlink:href="#path-2"></use>
                        <rect stroke="#BDBDBD" stroke-width="1" x="3.79183765" y="7.00108773" width="1" height="4.26457788"></rect>
                    </g>
                    <path d="M3.87697933,0.304265228 C4.18221429,0.310131424 4.50819091,1.1910169 4.50819091,1.1910169 L7.37617087,6.78639917 C7.37617087,6.78639917 7.72674747,7.22130681 7.52862048,7.44324006 C7.33049349,7.66517331 6.64592376,7.60439027 6.64592376,7.60439027 L1.04250743,7.60439027 C1.04250743,7.60439027 0.347415257,7.6512056 0.198636264,7.46266835 C0.0498572707,7.27413109 0.410506268,6.80349921 0.410506268,6.80349921 L3.2991609,1.167781 C3.2991609,1.167781 3.57174436,0.298399031 3.87697933,0.304265228 Z" id="Triangle" fill="#E0E0E0"></path>
                </g>
                <path d="M150.515711,190.164718 C150.515711,190.164718 150.180649,191.070891 148.682377,191.070891" id="Path-20" stroke="#FFFFFF" stroke-width="0.8" stroke-linecap="round"></path>
                <path d="M153.265711,190.164718 C153.265711,190.164718 153.600773,191.070891 155.099044,191.070891" id="Path-20" stroke="#FFFFFF" stroke-width="0.8" stroke-linecap="round"></path>
                <ellipse id="Oval-12-Copy" fill="#FFFFFF" cx="148.753781" cy="206.729885" rx="1" ry="1"></ellipse>
                <g id="Group-5" transform="translate(142.873360, 201.923903)">
                    <g id="Rectangle-6">
                        <use fill="#D8D8D8" fill-rule="evenodd" xlink:href="#path-3"></use>
                        <rect stroke="#979797" stroke-width="1" x="2.75036448" y="11.5523169" width="1" height="3.35394302"></rect>
                    </g>
                    <ellipse id="Oval-10" fill="#D8D8D8" cx="2.73286617" cy="5.86107714" rx="2.73286617" ry="5.86107714"></ellipse>
                </g>
                <g id="Group-4" transform="translate(146.248907, 206.947683)">
                    <rect id="Rectangle-6-Copy" fill="#BDBDBD" x="2.25036448" y="7.03329257" width="1" height="3.25176004"></rect>
                    <ellipse id="Oval-10-Copy" fill="#CCCCCC" cx="2.90297009" cy="4.25671216" rx="2.90297009" ry="3.27895845"></ellipse>
                </g>
                <g id="Group-11" transform="translate(54.000000, 204.257236)">
                    <polyline id="Path-34-Copy" fill="#D8D8D8" points="-6.64357458e-13 11.7537071 13.0554451 4.97379915e-14 21.1259806 11.8781325"></polyline>
                    <polygon id="Path-35-Copy" fill="#B3B3B3" points="13.126875 0.154577859 26.3458462 11.9315271 21.0929026 11.9315271"></polygon>
                </g>
                <g id="Group-4-Copy" transform="translate(65.000000, 210.000000)">
                    <rect id="Rectangle-6-Copy" fill="#C9C9C9" x="2.10604271" y="4.49912187" width="1" height="2.07455308"></rect>
                    <ellipse id="Oval-10-Copy" fill="#B7B7B7" cx="2.57999992" cy="2.72772319" rx="2.10829264" ry="2.09190509"></ellipse>
                </g>
                <g id="Group-12" transform="translate(71.000000, 198.000000)">
                    <polyline id="Path-34" fill="#D8D8D8" points="-1.05515596e-12 20.1159789 17.0190317 1.3500312e-13 27.539753 20.3289278"></polyline>
                    <polygon id="Path-35" fill="#BDBDBD" points="17.1121474 0.26455355 34.3443513 20.4203103 27.4966326 20.4203103"></polygon>
                </g>
            </g>
        </g>
    </g>
</svg>