<?xml version="1.0" encoding="UTF-8" standalone="no"?>
<svg width="18px" height="18px" viewBox="0 0 18 18" version="1.1" xmlns="http://www.w3.org/2000/svg" xmlns:xlink="http://www.w3.org/1999/xlink">
    <!-- Generator: Sketch 43.1 (39012) - http://www.bohemiancoding.com/sketch -->
    <title>cancel</title>
    <desc>Created with Sketch.</desc>
    <defs></defs>
    <g id="All--UI" stroke="none" stroke-width="1" fill="none" fill-rule="evenodd">
        <g id="登录－文本输入响应" transform="translate(-317.000000, -294.000000)" fill="#E0E0E0">
            <g id="cancel" transform="translate(317.000000, 294.000000)">
                <path d="M9,0 C4.05,0 0,4.05 0,9 C0,13.95 4.05,18 9,18 C13.95,18 18,13.95 18,9 C18,4.05 13.95,0 9,0 L9,0 Z M13.5,12.24 L12.24,13.5 L9,10.26 L5.76,13.5 L4.5,12.24 L7.74,9 L4.5,5.76 L5.76,4.5 L9,7.74 L12.24,4.5 L13.5,5.76 L10.26,9 L13.5,12.24 L13.5,12.24 Z" id="Shape"></path>
            </g>
        </g>
    </g>
</svg>