<?xml version="1.0" encoding="UTF-8" standalone="no"?>
<svg width="166px" height="166px" viewBox="0 0 166 166" version="1.1" xmlns="http://www.w3.org/2000/svg" xmlns:xlink="http://www.w3.org/1999/xlink">
    <!-- Generator: Sketch 43.1 (39012) - http://www.bohemiancoding.com/sketch -->
    <title>xxxhdpi/Group 2 Copy 2</title>
    <desc>Created with Sketch.</desc>
    <defs>
        <polygon id="path-1" points="2.78183597 1.3938423 0.117913793 1.3938423 0.117913793 0.00627229034 2.78183597 0.00627229034"></polygon>
        <polygon id="path-3" points="1.51842774e-16 0.589316523 1.51842774e-16 0.0406072723 1.03551284 0.0406072723 1.03551284 0.589316523 0 0.589316523"></polygon>
        <polygon id="path-5" points="0 10.3915125 52.3252637 10.3915125 52.3252637 -4.64614108e-05 0 -4.64614108e-05"></polygon>
        <ellipse id="path-7" cx="36.9222454" cy="36.9222454" rx="36.9222454" ry="36.9222454"></ellipse>
    </defs>
    <g id="All--UI" stroke="none" stroke-width="1" fill="none" fill-rule="evenodd">
        <g id="Group-2-Copy-2" transform="translate(-1.000000, -1.000000)">
            <ellipse id="Oval-Copy-2" fill="#F6F8F8" cx="84.0658985" cy="84.0658985" rx="82.9319728" ry="82.9319728"></ellipse>
            <rect id="Rectangle-3" stroke="#FFFDFD" stroke-width="2" opacity="0.517898787" x="39.8917675" y="17.3379381" width="83.8554033" height="122.327443" rx="8"></rect>
            <path d="M40.8917675,91.9338354 L122.747171,91.9338354 L122.747171,131.409976 C122.747171,135.82825 119.164099,139.409969 114.749492,139.409969 L48.8894465,139.409969 C44.4724504,139.409969 40.8917675,135.822082 40.8917675,131.409976 L40.8917675,91.9338354 Z" id="Rectangle-Copy-10" fill="#FFFFFF"></path>
            <path d="M40.8917675,26.3436077 C40.8917675,21.9221985 44.4748392,18.3379381 48.8894465,18.3379381 L114.749492,18.3379381 C119.166488,18.3379381 122.747171,21.9194878 122.747171,26.3436077 L122.747171,93.6449092 L40.8917675,93.6449092 L40.8917675,26.3436077 Z" id="Rectangle-Copy-9" fill="#FF7D72"></path>
            <g id="Page-1-Copy-5" transform="translate(73.559258, 34.490264) rotate(-360.000000) translate(-73.559258, -34.490264) translate(47.287334, 28.541904)">
                <g id="Group-3" transform="translate(5.076270, 8.997670)">
                    <mask id="mask-2" fill="white">
                        <use xlink:href="#path-1"></use>
                    </mask>
                    <g id="Clip-2"></g>
                    <path d="M2.43720931,1.3940746 L0.462540453,1.3940746 C0.258566712,1.3940746 0.0993564397,1.21659202 0.119661518,1.01262643 L0.193959645,0.256234676 C0.208265496,0.114527375 0.326865612,0.00627229034 0.468539681,0.00627229034 L2.43121009,0.00627229034 C2.57288415,0.00627229034 2.69148427,0.114527375 2.70579012,0.256234676 L2.78008825,1.01262643 C2.80039333,1.21659202 2.64118305,1.3940746 2.43720931,1.3940746" id="Fill-1" fill="#FEFEFE" mask="url(#mask-2)"></path>
                </g>
                <g id="Group-6" transform="translate(0.000000, 6.209986)">
                    <mask id="mask-4" fill="white">
                        <use xlink:href="#path-3"></use>
                    </mask>
                    <g id="Clip-5"></g>
                    <path d="M0.272687971,0.0406072723 L0.762778724,0.0406072723 C0.913682373,0.0406072723 1.03551284,0.163265394 1.03551284,0.314729591 C1.03551284,0.466193787 0.913682373,0.589316523 0.762778724,0.589316523 L0.272687971,0.589316523 C0.121784322,0.589316523 -4.61479051e-05,0.466193787 -4.61479051e-05,0.314729591 C-4.61479051e-05,0.163265394 0.121784322,0.0406072723 0.272687971,0.0406072723" id="Fill-4" fill="#FEFEFE" mask="url(#mask-4)"></path>
                </g>
                <path d="M1.00948542,4.05682447 L1.25083897,4.05682447 C1.40174262,4.05682447 1.52357309,4.1799472 1.52357309,4.3314114 C1.52357309,4.4828756 1.40174262,4.60599833 1.25083897,4.60599833 L1.00948542,4.60599833 C0.859043254,4.60599833 0.736751305,4.4828756 0.736751305,4.3314114 C0.736751305,4.1799472 0.859043254,4.05682447 1.00948542,4.05682447" id="Fill-7" fill="#FEFEFE"></path>
                <path d="M6.52605215,4.64614108e-05 C4.26157445,4.64614108e-05 2.42627226,1.17319706 2.42627226,3.45352306 C2.42627226,3.65051944 2.44242403,3.85216196 2.47195869,4.05519832 L2.05985789,4.05519832 C1.90941572,4.05519832 1.78712377,4.17785644 1.78712377,4.32932064 C1.78712377,4.48124945 1.90941572,4.60390757 2.05985789,4.60390757 L2.58363662,4.60390757 L4.25049895,4.60390757 C4.1457432,4.02267533 4.08805832,3.43679695 4.08805832,2.89412768 C4.08805832,0.525989622 5.17945628,0.0841416133 6.52605215,0.0841416133 C7.87264802,0.0841416133 8.96450746,0.525989622 8.96450746,2.89412768 C8.96450746,5.26226575 7.87264802,8.45416461 6.52605215,8.45416461 C5.58601932,8.45416461 4.77058584,6.89817199 4.36356132,5.15261682 L3.88454606,5.15261682 L2.75761422,5.15261682 L0.636656499,5.15261682 C0.486214328,5.15261682 0.364383859,5.27527494 0.364383859,5.42720375 C0.364383859,5.57866795 0.486214328,5.70132607 0.636656499,5.70132607 L1.4340923,5.70132607 L2.99343001,5.70132607 L3.69857,5.70132607 C3.84901217,5.70132607 3.97130412,5.82444881 3.97130412,5.975913 C3.97130412,6.1273772 3.84901217,6.25049994 3.69857,6.25049994 L3.29385288,6.25049994 L1.73959143,6.25049994 C1.58914926,6.25049994 1.46731879,6.37315806 1.46731879,6.52462225 C1.46731879,6.67608645 1.58914926,6.79920919 1.73959143,6.79920919 L3.66903534,6.79920919 C4.4410898,7.81206792 5.48264802,8.53825976 6.52605215,8.53825976 C8.57778801,8.53825976 10.625832,5.73291983 10.625832,3.45352306 C10.625832,1.17319706 8.79052985,4.64614108e-05 6.52605215,4.64614108e-05" id="Fill-9" fill="#FEFEFE"></path>
                <path d="M8.05451692,2.90026059 C8.05451692,5.25771253 7.37014348,8.43567297 6.5260983,8.43567297 C5.68205311,8.43567297 4.99767968,5.25771253 4.99767968,2.90026059 C4.99767968,0.542344038 5.68205311,0.1028191 6.5260983,0.1028191 C7.37014348,0.1028191 8.05451692,0.542344038 8.05451692,2.90026059" id="Fill-11" fill="#FEFEFE"></path>
                <path d="M14.6686654,6.66484279 L16.1712412,6.66484279 C16.4135177,6.66484279 16.6271825,6.61652292 16.8117741,6.51941858 C16.9959043,6.42231423 17.0886616,6.26713312 17.0886616,6.05387525 C17.0886616,5.84108199 16.9959043,5.68590088 16.8117741,5.58879654 C16.6271825,5.49169219 16.4135177,5.44290771 16.1712412,5.44290771 L14.6686654,5.44290771 L14.6686654,6.66484279 Z M18.5912374,9.37818913 C18.5912374,9.47993962 18.5312451,9.53058255 18.4112605,9.53058255 L17.5644465,9.53058255 C17.475381,9.53058255 17.377086,9.49852418 17.2700228,9.43301359 C17.1629597,9.36796762 17.0817394,9.28898322 17.0249775,9.19698963 L16.4255162,8.25196455 C16.1781634,7.86401178 15.8795864,7.66980309 15.5293238,7.66980309 L14.6686654,7.66980309 L14.6686654,9.19698963 C14.6686654,9.28898322 14.6363619,9.36796762 14.5717548,9.43301359 C14.5066863,9.49852418 14.4286963,9.53058255 14.336862,9.53058255 L13.6737166,9.53058255 C13.5823437,9.53058255 13.5034308,9.49852418 13.4374393,9.43301359 C13.3714478,9.36796762 13.3386828,9.28898322 13.3386828,9.19698963 L13.3386828,4.77525725 C13.3386828,4.68279904 13.3705248,4.60335003 13.4337475,4.53737483 C13.4974316,4.47093501 13.5749601,4.43794741 13.6667944,4.43794741 L16.5768813,4.43794741 C17.1154273,4.43794741 17.5570628,4.58383624 17.9013262,4.87422005 C18.246051,5.16553309 18.4181827,5.55906123 18.4181827,6.05387525 C18.4181827,6.74289796 17.9751628,7.17498907 17.0886616,7.35014859 C17.2294127,7.40218536 17.3600112,7.49139127 17.4799958,7.61823092 C17.5999803,7.74460596 17.7375011,7.92905775 17.8925581,8.17019247 L18.5344754,9.19698963 C18.5723167,9.26342945 18.5912374,9.32382928 18.5912374,9.37818913 L18.5912374,9.37818913 Z" id="Fill-13" fill="#FEFEFE"></path>
                <path d="M20.090352,7.2115542 L21.7309101,7.2115542 C21.7069132,6.65308805 21.435102,6.37339037 20.9140922,6.37339037 C20.3930823,6.37339037 20.1185023,6.65308805 20.090352,7.2115542 M19.3953646,9.08301979 C19.0331035,8.7373469 18.8522038,8.2397452 18.8522038,7.58975008 C18.8522038,6.93975495 19.034488,6.4402948 19.3990564,6.09090499 C19.7636249,5.7419798 20.2689444,5.5672849 20.9159381,5.5672849 C21.5624702,5.5672849 22.0668668,5.73686905 22.4291279,6.07696657 C22.7913889,6.41659948 22.9722887,6.90397967 22.9722887,7.53817791 L22.9722887,7.74074966 C22.9722887,7.80440179 22.9519836,7.8573678 22.9104505,7.89871845 C22.8693789,7.94006911 22.8172318,7.96097674 22.7535477,7.96097674 L20.0977357,7.96097674 C20.1208097,8.25182517 20.2038759,8.46415381 20.3460114,8.59656883 C20.4886085,8.72944846 20.7156562,8.79542366 21.028539,8.79542366 C21.3414218,8.79542366 21.555548,8.72433771 21.6709178,8.58216579 C21.7858261,8.44045849 21.9279616,8.36797869 22.0977859,8.36565562 L22.6234106,8.36565562 C22.6866332,8.36565562 22.7387803,8.38656326 22.7803134,8.42791391 C22.8213851,8.46926457 22.8416902,8.52176596 22.8416902,8.5858827 C22.8416902,9.26561313 22.1988498,9.6038522 20.9122462,9.60199374 C20.2634067,9.60199374 19.7576257,9.42869268 19.3953646,9.08301979" id="Fill-15" fill="#FEFEFE"></path>
                <path d="M24.8631068,6.70205838 C24.7292779,6.88558095 24.661902,7.17968167 24.661902,7.58436055 C24.661902,7.98950405 24.7255861,8.28406939 24.8524928,8.4689858 C24.9793996,8.65343759 25.1709134,8.74543119 25.4256498,8.74543119 C25.6808477,8.74543119 25.9780402,8.63949917 26.3163044,8.4262413 L26.3163044,6.56871413 C26.0131126,6.47439747 25.7579147,6.42654222 25.5511721,6.42654222 C25.2267523,6.42654222 24.9973972,6.5180712 24.8631068,6.70205838 M25.1312262,9.60171497 C24.639751,9.60171497 24.2285731,9.42748468 23.8986156,9.07948872 C23.5677351,8.73149276 23.4025256,8.23249722 23.4025256,7.58296671 C23.4025256,6.93297159 23.5741958,6.43444066 23.9161518,6.08783854 C24.2581078,5.74077181 24.7186639,5.56747075 25.2968971,5.56747075 C25.5954741,5.56747075 25.9355842,5.62740597 26.3163044,5.74820563 L26.3163044,4.65822096 C26.3163044,4.59410421 26.3370709,4.54160282 26.3781426,4.50025216 C26.4196757,4.45843689 26.4704384,4.43799387 26.5318151,4.43799387 L27.3181754,4.43799387 C27.3818595,4.43799387 27.4340066,4.45843689 27.4755397,4.50025216 C27.5166114,4.54160282 27.5369165,4.59410421 27.5369165,4.65822096 L27.5369165,9.31411884 C27.5369165,9.37591252 27.5166114,9.42702007 27.4755397,9.46837072 C27.4340066,9.51018599 27.3818595,9.53062901 27.3181754,9.53062901 L26.6411856,9.53062901 C26.5775015,9.53062901 26.5258159,9.51018599 26.4861287,9.46837072 C26.44598,9.42702007 26.4261364,9.37591252 26.4261364,9.31411884 L26.4261364,9.2040053 C26.0546457,9.46929995 25.6227014,9.60171497 25.1312262,9.60171497" id="Fill-17" fill="#FEFEFE"></path>
                <path d="M30.24626,8.76011299 L30.7294285,8.71736849 L30.8600271,8.71736849 C30.9232497,8.71736849 30.9758584,8.7373469 31.01693,8.77776833 C31.0580016,8.81818975 31.0787682,8.86976192 31.0787682,8.93387866 L31.0787682,9.313933 C31.0787682,9.36643439 31.0580016,9.4128958 31.01693,9.45424646 C30.9758584,9.49559711 30.9232497,9.5216155 30.8600271,9.53044317 C30.620058,9.57829842 30.3071752,9.60199374 29.9213787,9.60199374 C28.9102781,9.60199374 28.4049586,9.06908137 28.4049586,8.00325662 L28.4049586,4.65803511 C28.4049586,4.59391837 28.4252636,4.54141697 28.4667967,4.50006632 C28.5078684,4.45825105 28.5590926,4.43780803 28.6200078,4.43780803 L29.4100599,4.43780803 C29.4714366,4.43780803 29.5226608,4.45825105 29.5637325,4.50006632 C29.6048041,4.54141697 29.6251092,4.59391837 29.6251092,4.65803511 L29.6251092,5.84419491 L30.609444,5.84419491 C30.6708207,5.84419491 30.7220449,5.86463793 30.7631165,5.90459474 C30.8041881,5.94455155 30.8244932,5.99705294 30.8244932,6.06070508 L30.8244932,6.48350391 C30.8244932,6.54715604 30.8041881,6.59965743 30.7631165,6.64007886 C30.7220449,6.68003567 30.6708207,6.70001408 30.609444,6.70001408 L29.6251092,6.70001408 L29.6251092,8.00325662 C29.6251092,8.24532057 29.6818711,8.43163082 29.794472,8.562652 C29.9075343,8.69413779 30.0579765,8.76011299 30.24626,8.76011299" id="Fill-19" fill="#FEFEFE"></path>
                <path d="M32.6413362,7.2115542 L34.2818943,7.2115542 C34.2583588,6.65308805 33.9860862,6.37339037 33.4650764,6.37339037 C32.9440665,6.37339037 32.6699479,6.65308805 32.6413362,7.2115542 M31.9463488,9.08301979 C31.5840877,8.7373469 31.403188,8.2397452 31.403188,7.58975008 C31.403188,6.93975495 31.5854722,6.4402948 31.9500406,6.09090499 C32.3146091,5.7419798 32.8203901,5.5672849 33.4669223,5.5672849 C34.1134544,5.5672849 34.6183125,5.73686905 34.9801121,6.07696657 C35.3423731,6.41659948 35.5237344,6.90397967 35.5237344,7.53817791 L35.5237344,7.74074966 C35.5237344,7.80440179 35.5029678,7.8573678 35.4618962,7.89871845 C35.4203631,7.94006911 35.368216,7.96097674 35.3045319,7.96097674 L32.6487199,7.96097674 C32.6717939,8.25182517 32.7548601,8.46415381 32.8969956,8.59656883 C33.0395927,8.72944846 33.2671018,8.79542366 33.5799846,8.79542366 C33.892406,8.79542366 34.1065322,8.72433771 34.221902,8.58216579 C34.3368103,8.44045849 34.4794073,8.36797869 34.6487701,8.36565562 L35.1743948,8.36565562 C35.2376174,8.36565562 35.290226,8.38656326 35.3312976,8.42791391 C35.3723693,8.46926457 35.3926743,8.52176596 35.3926743,8.5858827 C35.3926743,9.26561313 34.749834,9.6038522 33.4632304,9.60199374 C32.8143909,9.60199374 32.3086098,9.42869268 31.9463488,9.08301979" id="Fill-21" fill="#FEFEFE"></path>
                <path d="M37.32078,8.04279528 C37.2252538,8.12317352 37.1777215,8.22724708 37.1777215,8.35501596 C37.1777215,8.48278484 37.2270997,8.58825224 37.3258562,8.67141816 C37.4250742,8.75411947 37.5649024,8.79547012 37.7458022,8.79547012 C38.1080632,8.79547012 38.4569414,8.6890735 38.7933596,8.47628024 L38.7933596,7.921531 L37.7107298,7.921531 C37.5459817,7.921531 37.4158447,7.96195243 37.32078,8.04279528 M36.4213573,9.27495188 C36.1093975,9.05751248 35.953879,8.74947333 35.953879,8.35176366 C35.953879,7.95405399 36.1093975,7.64833791 36.4213573,7.43508004 C36.7328557,7.22182217 37.1343424,7.11589016 37.6258176,7.11589016 L38.7933596,7.11589016 C38.7933596,6.83851554 38.7356747,6.64570069 38.6207665,6.53698099 C38.5053967,6.42779668 38.3037304,6.37343683 38.0157674,6.37343683 C37.7278045,6.37343683 37.5252152,6.44545201 37.4089225,6.58808854 C37.2921683,6.7316543 37.1495712,6.80320487 36.9802084,6.80320487 L36.4545838,6.80320487 C36.3913612,6.80320487 36.339214,6.78229723 36.2976809,6.74094658 C36.2566093,6.69959592 36.2358427,6.64802376 36.2358427,6.58623008 C36.2358427,5.90696427 36.8768371,5.56733136 38.1583645,5.56733136 C38.7181385,5.56733136 39.1671577,5.69324179 39.5058833,5.94506263 C39.8446089,6.19734808 40.0139717,6.58762393 40.0139717,7.11589016 L40.0139717,9.31397946 C40.0139717,9.37809621 39.9941281,9.43013298 39.9539794,9.4700898 C39.9142922,9.51051122 39.8621451,9.53048963 39.7989225,9.53048963 L39.1182409,9.53048963 C39.0545568,9.53048963 39.0028711,9.51004661 38.9627224,9.46823134 C38.9230352,9.42688069 38.9027302,9.37577313 38.9027302,9.31397946 L38.9027302,9.20386592 C38.5312395,9.47148364 38.1025255,9.60436327 37.6170495,9.60343404 C37.1315736,9.6020402 36.7328557,9.49285589 36.4213573,9.27495188" id="Fill-23" fill="#FEFEFE"></path>
                <path d="M41.2893152,8.92347131 C40.8716767,8.49974325 40.6630881,7.85114197 40.6630881,6.97859669 C40.6630881,6.10651603 40.8813677,5.46023781 41.3174654,5.03976206 C41.7535631,4.6192863 42.4079404,4.40928072 43.2805973,4.40928072 L44.0674191,4.40928072 C44.5870445,4.40928072 45.0554458,4.53426192 45.4726228,4.7842243 C45.8902614,5.03418669 46.0988499,5.34594275 46.0988499,5.71949248 C46.0988499,5.85934133 46.0577783,5.95969797 45.975635,6.0200978 C45.8934917,6.08049764 45.8131944,6.11023294 45.7356659,6.11023294 L45.3161814,6.11023294 C45.1135921,6.11023294 44.9525359,5.99454403 44.8325514,5.76223698 C44.7125668,5.53039454 44.4162973,5.41424102 43.9437427,5.41424102 L43.3156697,5.41424102 C42.8006591,5.41424102 42.451781,5.52621302 42.2681123,5.74829856 C42.0849051,5.97131332 41.9930708,6.38017373 41.9930708,6.97720285 C41.9930708,7.57376735 42.075214,7.98634467 42.2399621,8.21493481 C42.4047101,8.44352494 42.6986722,8.55782001 43.1218485,8.55782001 L43.8449862,8.55782001 C44.223399,8.55782001 44.4938258,8.4848756 44.6562664,8.33898677 C44.8182455,8.19356256 44.9022347,7.98448622 44.9068495,7.71268697 L44.1094137,7.71268697 C44.0180409,7.71268697 43.9395894,7.67969937 43.8749823,7.61465339 C43.8103753,7.54960742 43.7780717,7.47062302 43.7780717,7.37862943 L43.7780717,7.10125481 C43.7780717,7.00926122 43.8103753,6.93027682 43.8749823,6.86523085 C43.9395894,6.80018488 44.0180409,6.76766189 44.1094137,6.76766189 L45.8801088,6.76766189 C45.9719432,6.76766189 46.0503946,6.80018488 46.1150017,6.86523085 C46.1796087,6.93027682 46.2119123,7.00926122 46.2119123,7.10125481 L46.2119123,7.49571218 C46.2119123,8.1587165 46.0143992,8.66839817 45.6193732,9.02475718 C45.2243471,9.38065158 44.6447294,9.5590634 43.8800586,9.5590634 L43.0867761,9.5590634 C42.3059536,9.5590634 41.7064923,9.34719937 41.2893152,8.92347131" id="Fill-25" fill="#FEFEFE"></path>
                <path d="M50.6390192,5.71656541 C50.4013575,5.43222158 50.017407,5.29004967 49.4871675,5.29004967 C48.9569281,5.29004967 48.572516,5.43222158 48.3334699,5.71656541 C48.0948852,6.00044463 47.9758236,6.42370807 47.9758236,6.98589113 C47.9758236,7.54807419 48.0948852,7.97133764 48.3334699,8.25382301 C48.572516,8.53677299 48.9569281,8.67848029 49.4871675,8.67848029 C50.017407,8.67848029 50.4013575,8.53677299 50.6390192,8.25382301 C50.876681,7.97133764 50.9952811,7.54807419 50.9952811,6.98589113 C50.9952811,6.42370807 50.876681,6.00044463 50.6390192,5.71656541 M51.6039719,9.00324555 C51.1226493,9.42836745 50.4175093,9.64069609 49.4871675,9.64069609 C48.5572872,9.64069609 47.8512243,9.42836745 47.3689787,9.00324555 C46.8871946,8.57812365 46.645841,7.90536243 46.645841,6.98449729 C46.645841,6.06316753 46.8871946,5.39087093 47.3689787,4.96714287 C47.8512243,4.54341481 48.5572872,4.33155078 49.4871675,4.33155078 C50.4175093,4.33155078 51.1226493,4.54341481 51.6039719,4.96714287 C52.0848331,5.39087093 52.3252637,6.06316753 52.3252637,6.98449729 C52.3252637,7.90536243 52.0848331,8.57812365 51.6039719,9.00324555" id="Fill-27" fill="#FEFEFE"></path>
                <polygon id="Fill-29" fill="#FEFEFE" points="13.9874762 3.24872116 13.7728884 3.24872116 13.7728884 1.58307962 13.188656 1.58307962 13.188656 1.391194 14.5717087 1.391194 14.5717087 1.58307962 13.9874762 1.58307962"></polygon>
                <path d="M15.4487496,1.83085832 C15.5101263,1.83085832 15.5650423,1.83596907 15.6139591,1.84572597 L15.5848859,2.04179312 C15.5276625,2.02924854 15.4773613,2.02274394 15.4335208,2.02274394 C15.3218429,2.02274394 15.2258552,2.06827612 15.1464808,2.1598051 C15.0671064,2.25133408 15.0269578,2.36516453 15.0269578,2.50129646 L15.0269578,3.24886055 L14.8179077,3.24886055 L14.8179077,1.85641209 L14.9905009,1.85641209 L15.0144978,2.11380831 L15.0246504,2.11380831 C15.0758745,2.02367317 15.1377127,1.95398105 15.2101649,1.90426735 C15.2826171,1.85548287 15.3619915,1.83085832 15.4487496,1.83085832" id="Fill-31" fill="#FEFEFE"></path>
                <path d="M16.2500157,3.09990527 C16.3801528,3.09990527 16.4826011,3.06412998 16.5573607,2.9921148 C16.6316589,2.919635 16.6690387,2.81927835 16.6690387,2.68965102 L16.6690387,2.5637406 L16.4595272,2.57256827 C16.2929332,2.57860825 16.1729487,2.60509125 16.099112,2.65062344 C16.0257369,2.69708484 15.9888185,2.76863542 15.9888185,2.86620438 C15.9888185,2.94240109 16.011431,3.00047785 16.0575789,3.03997005 C16.1032653,3.07992686 16.1674109,3.09990527 16.2500157,3.09990527 L16.2500157,3.09990527 Z M16.7230317,3.24858178 L16.6814986,3.05065617 L16.6713461,3.05065617 C16.6025857,3.13753901 16.5338253,3.196545 16.4650649,3.22720953 C16.3963045,3.25880329 16.3109309,3.27413556 16.2084826,3.27413556 C16.0709618,3.27413556 15.9634372,3.23836027 15.8859087,3.16727431 C15.8079187,3.09618836 15.7691545,2.99490248 15.7691545,2.86341669 C15.7691545,2.58278978 15.9925104,2.43504249 16.4392221,2.42156868 L16.6736534,2.41367024 L16.6736534,2.32771664 C16.6736534,2.21853232 16.6505795,2.13768947 16.6039701,2.08518808 C16.5573607,2.0331513 16.4826011,2.00713291 16.3801528,2.00713291 C16.264783,2.00713291 16.1341844,2.04290819 15.9888185,2.11399415 L15.9242115,1.95277306 C15.9925104,1.91560393 16.06727,1.88633324 16.1484903,1.86496099 C16.2297106,1.84405336 16.3109309,1.83290262 16.3926127,1.83290262 C16.5573607,1.83290262 16.6796527,1.87053636 16.7590271,1.94394539 C16.8384015,2.01735442 16.8785501,2.13583101 16.8785501,2.29798133 L16.8785501,3.24858178 L16.7230317,3.24858178 Z" id="Fill-33" fill="#FEFEFE"></path>
                <path d="M17.6128556,3.24872116 L17.0876925,1.85627271 L17.3124328,1.85627271 L17.6105482,2.68189196 C17.6774627,2.87470682 17.7171499,3.00061724 17.7286869,3.05822938 L17.7388394,3.05822938 C17.748069,3.01316182 17.7776036,2.920239 17.8265204,2.77899631 C17.8758987,2.63821824 17.9861922,2.33017909 18.1578624,1.85627271 L18.3826027,1.85627271 L17.8574395,3.24872116 L17.6128556,3.24872116 Z" id="Fill-35" fill="#FEFEFE"></path>
                <path d="M19.1320447,2.00736521 C19.0208282,2.00736521 18.9322242,2.04360511 18.8662327,2.11654953 C18.8002412,2.18949394 18.761477,2.2903152 18.7494785,2.41901331 L19.4726162,2.41901331 C19.4726162,2.28613367 19.443543,2.18438319 19.3844737,2.11376184 C19.3254044,2.04267589 19.2414152,2.00736521 19.1320447,2.00736521 M19.1888066,3.27436786 C18.9843714,3.27436786 18.8233152,3.21164496 18.7051765,3.08573454 C18.5865764,2.96075335 18.5275071,2.78652306 18.5275071,2.56350829 C18.5275071,2.3395643 18.5824231,2.16115248 18.6922551,2.02920208 C18.8020871,1.89678706 18.9492989,1.83081186 19.134352,1.83081186 C19.3078682,1.83081186 19.4449274,1.88795939 19.5459914,2.00271907 C19.6470553,2.11747876 19.6973565,2.26894295 19.6973565,2.45711166 L19.6973565,2.59045591 L18.7448637,2.59045591 C18.749017,2.75400007 18.7900887,2.87805204 18.8676172,2.96307642 C18.9456071,3.04717157 19.0549776,3.08991607 19.1966517,3.08991607 C19.345248,3.08991607 19.4924598,3.05878692 19.6382872,2.9955994 L19.6382872,3.18376811 C19.563989,3.2162911 19.4938442,3.23905719 19.4278527,3.25299561 C19.3618612,3.26693404 19.2824868,3.27436786 19.1888066,3.27436786" id="Fill-37" fill="#FEFEFE"></path>
                <mask id="mask-6" fill="white">
                    <use xlink:href="#path-5"></use>
                </mask>
                <g id="Clip-40"></g>
                <polygon id="Fill-39" fill="#FEFEFE" mask="url(#mask-6)" points="20.0544951 3.24853532 20.2640066 3.24853532 20.2640066 1.27160233 20.0544951 1.27160233"></polygon>
                <path d="M22.2274154,3.24872116 L21.6016498,1.6021288 L21.5914973,1.6021288 C21.6030342,1.73222075 21.6090335,1.88740185 21.6090335,2.06720751 L21.6090335,3.24872116 L21.4110589,3.24872116 L21.4110589,1.391194 L21.7340943,1.391194 L22.3183268,2.9234913 L22.3284793,2.9234913 L22.917788,1.391194 L23.2380545,1.391194 L23.2380545,3.24872116 L23.0239282,3.24872116 L23.0239282,2.05187525 C23.0239282,1.91481409 23.029466,1.76567296 23.0414644,1.60445187 L23.0313119,1.60445187 L22.40047,3.24872116 L22.2274154,3.24872116 Z" id="Fill-41" fill="#FEFEFE" mask="url(#mask-6)"></path>
                <path d="M24.089991,3.09990527 C24.2201281,3.09990527 24.3225764,3.06412998 24.397336,2.9921148 C24.4716342,2.919635 24.509014,2.81927835 24.509014,2.68965102 L24.509014,2.5637406 L24.2995025,2.57256827 C24.1329085,2.57860825 24.012924,2.60509125 23.9390873,2.65062344 C23.8657122,2.69708484 23.8287938,2.76863542 23.8287938,2.86620438 C23.8287938,2.94240109 23.8514063,3.00047785 23.8975542,3.03997005 C23.9432406,3.07992686 24.0073862,3.09990527 24.089991,3.09990527 L24.089991,3.09990527 Z M24.563007,3.24858178 L24.5214739,3.05065617 L24.5113214,3.05065617 C24.442561,3.13753901 24.3738006,3.196545 24.3050402,3.22720953 C24.2362798,3.25880329 24.1509062,3.27413556 24.0484579,3.27413556 C23.9109371,3.27413556 23.8034125,3.23836027 23.725884,3.16727431 C23.6478941,3.09618836 23.6091298,2.99490248 23.6091298,2.86341669 C23.6091298,2.58278978 23.8324857,2.43504249 24.2791974,2.42156868 L24.5136288,2.41367024 L24.5136288,2.32771664 C24.5136288,2.21853232 24.4905548,2.13768947 24.4439454,2.08518808 C24.397336,2.0331513 24.3225764,2.00713291 24.2196666,2.00713291 C24.1047583,2.00713291 23.9741597,2.04290819 23.8287938,2.11399415 L23.7641868,1.95277306 C23.8324857,1.91560393 23.9072453,1.88633324 23.9884656,1.86496099 C24.0696859,1.84405336 24.1509062,1.83290262 24.232588,1.83290262 C24.397336,1.83290262 24.519628,1.87053636 24.5990024,1.94394539 C24.6783768,2.01735442 24.718064,2.13583101 24.718064,2.29798133 L24.718064,3.24858178 L24.563007,3.24858178 Z" id="Fill-42" fill="#FEFEFE" mask="url(#mask-6)"></path>
                <path d="M25.6722642,3.09721051 C25.8153227,3.09721051 25.9191555,3.05818292 25.9833011,2.97966314 C26.0474467,2.90160797 26.0797502,2.77523294 26.0797502,2.60100265 L26.0797502,2.5563997 C26.0797502,2.3589387 26.0469852,2.21769602 25.9819167,2.13406548 C25.9168481,2.04950571 25.8125538,2.00722583 25.6699568,2.00722583 C25.5472034,2.00722583 25.4526002,2.0555457 25.3875316,2.15172082 C25.3224631,2.24789593 25.2896981,2.38356325 25.2896981,2.55872277 C25.2896981,2.73666997 25.3224631,2.87094344 25.3870702,2.96154319 C25.4516772,3.05214294 25.5472034,3.09721051 25.6722642,3.09721051 L25.6722642,3.09721051 Z M26.0912872,3.06189984 L26.0797502,3.06189984 C25.9828396,3.20360714 25.8383967,3.27422848 25.6454984,3.27422848 C25.4650601,3.27422848 25.324309,3.21150558 25.2237066,3.08745361 C25.1231041,2.96293703 25.0728029,2.78591906 25.0728029,2.5563997 C25.0728029,2.32688033 25.1235656,2.14846852 25.224168,2.02162887 C25.325232,1.8943246 25.4655216,1.83067247 25.6454984,1.83067247 C25.8333204,1.83067247 25.9773019,1.89943536 26.0774428,2.03649652 L26.0935946,2.03649652 L26.0848265,1.93613987 L26.0797502,1.83857091 L26.0797502,1.27174171 L26.2892617,1.27174171 L26.2892617,3.2486747 L26.1189759,3.2486747 L26.0912872,3.06189984 Z" id="Fill-43" fill="#FEFEFE" mask="url(#mask-6)"></path>
                <path d="M27.2608597,2.00736521 C27.1501047,2.00736521 27.0615007,2.04360511 26.9955092,2.11654953 C26.9295177,2.18949394 26.890292,2.2903152 26.878755,2.41901331 L27.6014312,2.41901331 C27.6014312,2.28613367 27.5723581,2.18438319 27.5132887,2.11376184 C27.4542194,2.04267589 27.3702302,2.00736521 27.2608597,2.00736521 M27.3176216,3.27436786 C27.1131864,3.27436786 26.9521302,3.21164496 26.8339916,3.08573454 C26.7153915,2.96075335 26.6563221,2.78652306 26.6563221,2.56350829 C26.6563221,2.3395643 26.7116996,2.16115248 26.8210702,2.02920208 C26.9309022,1.89678706 27.078114,1.83081186 27.2636286,1.83081186 C27.4366832,1.83081186 27.5737425,1.88795939 27.6748064,2.00271907 C27.7758703,2.11747876 27.8261715,2.26894295 27.8261715,2.45711166 L27.8261715,2.59045591 L26.8736788,2.59045591 C26.8778321,2.75400007 26.9189037,2.87805204 26.9964322,2.96307642 C27.0744222,3.04717157 27.1837927,3.08991607 27.3254668,3.08991607 C27.474063,3.08991607 27.6212748,3.05878692 27.7671022,2.9955994 L27.7671022,3.18376811 C27.6928041,3.2162911 27.6231207,3.23905719 27.5571292,3.25299561 C27.4911377,3.26693404 27.4113019,3.27436786 27.3176216,3.27436786" id="Fill-44" fill="#FEFEFE" mask="url(#mask-6)"></path>
                <polygon id="Fill-45" fill="#FEFEFE" mask="url(#mask-6)" points="29.914595 3.24872116 28.8859582 3.24872116 28.8859582 1.391194 29.914595 1.391194 29.914595 1.58307962 29.1005459 1.58307962 29.1005459 2.18150258 29.8656782 2.18150258 29.8656782 2.37199436 29.1005459 2.37199436 29.1005459 3.0554417 29.914595 3.0554417"></polygon>
                <path d="M30.6692055,3.09990527 C30.7998041,3.09990527 30.901791,3.06412998 30.9765506,2.9921148 C31.0508487,2.919635 31.0882285,2.81927835 31.0882285,2.68965102 L31.0882285,2.5637406 L30.878717,2.57256827 C30.7121231,2.57860825 30.5921385,2.60509125 30.5183019,2.65062344 C30.4449267,2.69708484 30.4080084,2.76863542 30.4080084,2.86620438 C30.4080084,2.94240109 30.4306209,3.00047785 30.4767688,3.03997005 C30.5224552,3.07992686 30.5866008,3.09990527 30.6692055,3.09990527 L30.6692055,3.09990527 Z M31.1422215,3.24858178 L31.1006884,3.05065617 L31.0905359,3.05065617 C31.0217755,3.13753901 30.9530151,3.196545 30.8842548,3.22720953 C30.8159559,3.25880329 30.7301208,3.27413556 30.6276724,3.27413556 C30.4906131,3.27413556 30.3830885,3.23836027 30.3050985,3.16727431 C30.2271086,3.09618836 30.1883443,2.99490248 30.1883443,2.86341669 C30.1883443,2.58278978 30.4117002,2.43504249 30.8584119,2.42156868 L31.0933048,2.41367024 L31.0933048,2.32771664 C31.0933048,2.21853232 31.0697693,2.13768947 31.02316,2.08518808 C30.9765506,2.0331513 30.901791,2.00713291 30.7993426,2.00713291 C30.6839729,2.00713291 30.5538358,2.04290819 30.4080084,2.11399415 L30.3434013,1.95277306 C30.4117002,1.91560393 30.4864598,1.88633324 30.5676801,1.86496099 C30.6489004,1.84405336 30.7301208,1.83290262 30.8118025,1.83290262 C30.977012,1.83290262 31.0988425,1.87053636 31.1786784,1.94394539 C31.2575913,2.01735442 31.29774,2.13583101 31.29774,2.29798133 L31.29774,3.24858178 L31.1422215,3.24858178 Z" id="Fill-46" fill="#FEFEFE" mask="url(#mask-6)"></path>
                <path d="M32.6212619,2.86852745 C32.6212619,2.99815478 32.5732681,3.09804681 32.4772804,3.16866816 C32.3812928,3.23882488 32.2470024,3.27413556 32.0734863,3.27413556 C31.8902791,3.27413556 31.7472206,3.24486487 31.6447722,3.18632349 L31.6447722,2.99072096 C31.7112252,3.02463778 31.782293,3.0515854 31.858437,3.07109919 C31.9345811,3.09061299 32.0079562,3.09990527 32.0785625,3.09990527 C32.1883946,3.09990527 32.2723837,3.08224993 32.3309916,3.04740388 C32.3900609,3.0120932 32.4195956,2.95819797 32.4195956,2.8866474 C32.4195956,2.83228755 32.3960601,2.78582614 32.3494507,2.74726317 C32.3028414,2.7087002 32.2114685,2.66363263 32.0762551,2.61066662 C31.9475025,2.56281137 31.8561296,2.52053149 31.8016751,2.48429159 C31.7472206,2.4485163 31.7070719,2.40763026 31.6803061,2.36163347 C31.6540018,2.31610128 31.6406189,2.26127682 31.6406189,2.1980893 C31.6406189,2.08472346 31.6867668,1.99505294 31.7781397,1.92954235 C31.869974,1.86356715 31.9959578,1.83104416 32.1556295,1.83104416 C32.3046873,1.83104416 32.4500532,1.86124408 32.5921887,1.92210853 L32.5178906,2.09355113 C32.3789854,2.0364036 32.2534631,2.00713291 32.1404007,2.00713291 C32.0411827,2.00713291 31.9664231,2.0233944 31.9161219,2.05452355 C31.8653592,2.08565269 31.8404394,2.1288618 31.8404394,2.18368627 C31.8404394,2.22085539 31.8496689,2.25291377 31.8685896,2.27893216 C31.8875102,2.30541516 31.9179678,2.33050432 31.9599624,2.35419964 C32.001957,2.37789496 32.0827159,2.4122764 32.2022389,2.45687936 C32.3665255,2.51727919 32.4772804,2.57767902 32.5349653,2.63900808 C32.5926502,2.69987253 32.6212619,2.77653386 32.6212619,2.86852745" id="Fill-47" fill="#FEFEFE" mask="url(#mask-6)"></path>
                <path d="M32.7424925,1.85627271 L32.9672328,1.85627271 L33.269963,2.65029821 C33.336416,2.8314977 33.3774876,2.96251888 33.3936394,3.04289712 L33.4037919,3.04289712 C33.4148674,2.99968801 33.4374799,2.92581437 33.4725523,2.82081158 C33.5071632,2.71673802 33.62161,2.39476045 33.8149698,1.85627271 L34.0397101,1.85627271 L33.445325,3.44153602 C33.3867172,3.59857558 33.3174954,3.70961835 33.2390439,3.77512894 C33.160131,3.84063953 33.0636819,3.87362713 32.9492351,3.87362713 C32.885551,3.87362713 32.8223283,3.8661933 32.7600287,3.85225488 L32.7600287,3.68313535 C32.806638,3.69335686 32.8578622,3.69846761 32.9155471,3.69846761 C33.0590671,3.69846761 33.1619769,3.61716015 33.2233536,3.4540806 L33.2999591,3.25615499 L32.7424925,1.85627271 Z" id="Fill-48" fill="#FEFEFE" mask="url(#mask-6)"></path>
                <path d="M36.0650032,3.24872116 L35.8111897,2.43146496 C35.7954994,2.38175126 35.7655033,2.26838542 35.7216628,2.09136744 L35.7115102,2.09136744 C35.6778223,2.23957934 35.6487491,2.35387441 35.6233677,2.43425265 L35.3621706,3.24872116 L35.1198941,3.24872116 L34.7424042,1.85627271 L34.9620682,1.85627271 C35.0511337,2.20612713 35.1189711,2.47235101 35.166042,2.65540896 C35.2126514,2.8380023 35.2389557,2.96158965 35.2458779,3.02524178 L35.2560304,3.02524178 C35.26526,2.9764573 35.2800273,2.91419901 35.3007939,2.83753769 C35.3215604,2.76087636 35.3395581,2.70001191 35.3543254,2.65540896 L35.6081389,1.85627271 L35.8351866,1.85627271 L36.0825394,2.65540896 C36.1296102,2.80083317 36.1614523,2.9234913 36.178527,3.0224541 L36.1886796,3.0224541 C36.1919099,2.99178957 36.200678,2.94486354 36.2159068,2.88121141 C36.2302127,2.81755928 36.3178937,2.47606792 36.4784884,1.85627271 L36.695845,1.85627271 L36.3137404,3.24872116 L36.0650032,3.24872116 Z" id="Fill-49" fill="#FEFEFE" mask="url(#mask-6)"></path>
                <path d="M36.9455514,3.24853532 L37.1550628,3.24853532 L37.1550628,1.85608686 L36.9455514,1.85608686 L36.9455514,3.24853532 Z M36.9280152,1.47882022 C36.9280152,1.43050035 36.9395521,1.39518968 36.963549,1.37242359 C36.986623,1.35012211 37.0161577,1.33897137 37.0516915,1.33897137 C37.0853795,1.33897137 37.1144527,1.35012211 37.1389111,1.37335282 C37.162908,1.39611891 37.1753679,1.43142958 37.1753679,1.47882022 C37.1753679,1.52621085 37.162908,1.56198614 37.1389111,1.58475223 C37.1144527,1.60798294 37.0853795,1.6200629 37.0516915,1.6200629 C37.0161577,1.6200629 36.986623,1.60798294 36.963549,1.58475223 C36.9395521,1.56198614 36.9280152,1.52621085 36.9280152,1.47882022 L36.9280152,1.47882022 Z" id="Fill-50" fill="#FEFEFE" mask="url(#mask-6)"></path>
                <path d="M38.0461327,3.09990527 C38.0830511,3.09990527 38.118585,3.09711758 38.1531959,3.09154222 C38.1878068,3.08643146 38.2150341,3.08039148 38.2353392,3.07435149 L38.2353392,3.2360372 C38.2127267,3.24672332 38.1790387,3.25601561 38.1347367,3.26344943 C38.0908962,3.27041864 38.051209,3.27413556 38.0156751,3.27413556 C37.7480173,3.27413556 37.6141884,3.13196364 37.6141884,2.84854904 L37.6141884,2.0201421 L37.4162138,2.0201421 L37.4162138,1.91839161 L37.6141884,1.83104416 L37.7027923,1.53369114 L37.8241613,1.53369114 L37.8241613,1.85613333 L38.2251866,1.85613333 L38.2251866,2.0201421 L37.8241613,2.0201421 L37.8241613,2.83925676 C37.8241613,2.92335191 37.8440049,2.98793327 37.8832306,3.03253622 C37.9229178,3.07760379 37.9769109,3.09990527 38.0461327,3.09990527" id="Fill-51" fill="#FEFEFE" mask="url(#mask-6)"></path>
                <path d="M39.458074,3.24872116 L39.458074,2.34783443 C39.458074,2.23400397 39.4322312,2.14990882 39.381007,2.09369051 C39.3297829,2.03793682 39.2494855,2.01005998 39.140115,2.01005998 C38.9947491,2.01005998 38.8886089,2.04955218 38.8216944,2.1294658 C38.75478,2.20891481 38.721092,2.33947137 38.721092,2.52067087 L38.721092,3.24872116 L38.5115805,3.24872116 L38.5115805,1.27178817 L38.721092,1.27178817 L38.721092,1.87021113 C38.721092,1.9417617 38.7178617,2.00169692 38.7109395,2.04908756 L38.7238609,2.04908756 C38.7649325,1.98218313 38.8235404,1.92968174 38.8996844,1.89111877 C38.9758284,1.8525558 39.0625865,1.833042 39.1599586,1.833042 C39.3293214,1.833042 39.4562281,1.87392805 39.5406788,1.9547709 C39.6251295,2.03561375 39.6675855,2.16384724 39.6675855,2.3404006 L39.6675855,3.24872116 L39.458074,3.24872116 Z" id="Fill-52" fill="#FEFEFE" mask="url(#mask-6)"></path>
            </g>
            <g id="Group-9-Copy-3" transform="translate(44.816882, 108.615572)" fill="#B6B6B6">
                <rect id="Rectangle-9" transform="translate(0.490639, 1.517771) rotate(-360.000000) translate(-0.490639, -1.517771) " x="-5.55111512e-17" y="-4.4408921e-16" width="1" height="3.03554288"></rect>
                <rect id="Rectangle-9-Copy-3" transform="translate(7.939576, 1.517771) rotate(-360.000000) translate(-7.939576, -1.517771) " x="7.44893699" y="-4.4408921e-16" width="1" height="3.03554288"></rect>
                <rect id="Rectangle-9-Copy" transform="translate(3.283991, 1.517771) rotate(-360.000000) translate(-3.283991, -1.517771) " x="2.79335137" y="2.22044605e-16" width="1" height="3.03554288"></rect>
                <rect id="Rectangle-9-Copy-2" transform="translate(5.146225, 1.517771) rotate(-360.000000) translate(-5.146225, -1.517771) " x="4.65558562" y="2.22044605e-16" width="1" height="3.03554288"></rect>
                <rect id="Rectangle-9-Copy-29" transform="translate(7.008459, 1.517771) rotate(-360.000000) translate(-7.008459, -1.517771) " x="6.51781987" y="-4.4408921e-16" width="1" height="3.03554288"></rect>
                <rect id="Rectangle-9-Copy-28" transform="translate(2.352874, 1.517771) rotate(-360.000000) translate(-2.352874, -1.517771) " x="1.86223425" y="0" width="1" height="3.03554288"></rect>
            </g>
            <ellipse id="Oval-2-Copy-5" stroke="#BDBDBD" stroke-width="6" fill="#FFFFFF" cx="92.6135341" cy="107.642737" rx="40.9277017" ry="41.2221456"></ellipse>
            <path d="M121.767749,139.24278 C120.991722,138.466753 120.996871,137.203415 121.773629,136.426657 L123.654448,134.545838 C124.433723,133.766564 125.695673,133.76506 126.470571,134.539958 L134.241678,142.311065 C135.017705,143.087092 135.012556,144.35043 134.235798,145.127189 L132.354979,147.008007 C131.575705,147.787282 130.313754,147.788786 129.538856,147.013888" id="Rectangle-8-Copy-5" fill="#BDBDBD" transform="translate(128.004714, 140.776923) rotate(-2.000000) translate(-128.004714, -140.776923) "></path>
            <g id="Group-7-Copy-4" transform="translate(55.610947, 70.345706)">
                <mask id="mask-8" fill="white">
                    <use xlink:href="#path-7"></use>
                </mask>
                <g id="Mask"></g>
                <g id="Group-2-Copy" mask="url(#mask-8)">
                    <g transform="translate(-3.442888, 35.914436)" id="Group">
                        <g>
                            <rect id="Rectangle-9" fill="#B6B6B6" x="0" y="0" width="2.4030555" height="8.18554033"></rect>
                            <rect id="Rectangle-9-Copy-3" fill="#B6B6B6" x="19.224444" y="0" width="2.4030555" height="8.18554033"></rect>
                            <rect id="Rectangle-9-Copy-7" fill="#B6B6B6" x="48.06111" y="0" width="2.4030555" height="8.18554033"></rect>
                            <rect id="Rectangle-9-Copy-13" fill="#B6B6B6" x="79.3008315" y="0" width="2.4030555" height="8.18554033"></rect>
                            <rect id="Rectangle-9-Copy-5" fill="#B6B6B6" x="31.2397215" y="0" width="2.4030555" height="8.18554033"></rect>
                            <rect id="Rectangle-9-Copy-8" fill="#B6B6B6" x="60.0763875" y="0" width="2.4030555" height="8.18554033"></rect>
                            <rect id="Rectangle-9-Copy-14" fill="#B6B6B6" x="91.316109" y="0" width="2.4030555" height="8.18554033"></rect>
                            <rect id="Rectangle-9-Copy-4" fill="#B6B6B6" x="24.030555" y="0" width="2.4030555" height="8.18554033"></rect>
                            <rect id="Rectangle-9-Copy-9" fill="#B6B6B6" x="52.867221" y="0" width="2.4030555" height="8.18554033"></rect>
                            <rect id="Rectangle-9-Copy-15" fill="#B6B6B6" x="84.1069425" y="0" width="2.4030555" height="8.18554033"></rect>
                            <rect id="Rectangle-9-Copy-25" fill="#B6B6B6" x="96.12222" y="0" width="2.4030555" height="8.18554033"></rect>
                            <rect id="Rectangle-9-Copy" fill="#B6B6B6" x="7.2091665" y="0" width="2.4030555" height="8.18554033"></rect>
                            <rect id="Rectangle-9-Copy-10" fill="#B6B6B6" x="36.0458325" y="0" width="4.806111" height="8.18554033"></rect>
                            <rect id="Rectangle-9-Copy-16" fill="#B6B6B6" x="67.285554" y="0" width="4.806111" height="8.18554033"></rect>
                            <rect id="Rectangle-9-Copy-22" fill="#B6B6B6" x="103.331386" y="0" width="4.806111" height="8.18554033"></rect>
                            <rect id="Rectangle-9-Copy-2" fill="#B6B6B6" x="12.0152775" y="0" width="2.4030555" height="8.18554033"></rect>
                            <rect id="Rectangle-9-Copy-29" fill="#B6B6B6" x="16.8213885" y="0" width="1.20152775" height="8.18554033"></rect>
                            <rect id="Rectangle-9-Copy-11" fill="#B6B6B6" x="43.254999" y="0" width="1.20152775" height="8.18554033"></rect>
                            <rect id="Rectangle-9-Copy-17" fill="#B6B6B6" x="74.4947205" y="0" width="1.20152775" height="8.18554033"></rect>
                            <rect id="Rectangle-9-Copy-23" fill="#B6B6B6" x="110.540553" y="0" width="1.20152775" height="8.18554033"></rect>
                            <rect id="Rectangle-9-Copy-6" fill="#B6B6B6" x="28.836666" y="0" width="1.20152775" height="8.18554033"></rect>
                            <rect id="Rectangle-9-Copy-12" fill="#B6B6B6" x="57.673332" y="0" width="1.20152775" height="8.18554033"></rect>
                            <rect id="Rectangle-9-Copy-27" fill="#B6B6B6" x="64.8824985" y="0" width="1.20152775" height="8.18554033"></rect>
                            <rect id="Rectangle-9-Copy-28" fill="#B6B6B6" x="4.806111" y="0" width="1.20152775" height="8.18554033"></rect>
                            <rect id="Rectangle-9-Copy-18" fill="#B6B6B6" x="88.9130535" y="0" width="1.20152775" height="8.18554033"></rect>
                            <rect id="Rectangle-9-Copy-26" fill="#B6B6B6" x="100.928331" y="0" width="1.20152775" height="8.18554033"></rect>
                        </g>
                    </g>
                </g>
                <g id="Group-7" mask="url(#mask-8)" line-spacing="18" font-family="Ubuntu-Bold, Ubuntu" font-size="11.8000002" font-weight="bold">
                    <g transform="translate(5.398482, 12.882292)">
                        <text id="008696">
                            <tspan x="29.4063607" y="14.9812786" fill="#686868">008696</tspan>
                        </text>
                        <text id="RTG-600">
                            <tspan x="27.8541547" y="45.5500664" fill="#696969">RTG 600</tspan>
                        </text>
                        <text id="PUK-Copy-2">
                            <tspan x="0" y="14.885284" fill="#696969">PUK</tspan>
                        </text>
                        <text id="CID-Copy-2">
                            <tspan x="1.63116092" y="45.5560135" fill="#696969">CID</tspan>
                        </text>
                    </g>
                </g>
            </g>
            <path d="M135.103099,77.5295378 C132.674772,79.3838758 131.923212,78.7243414 133.419199,76.0657456 L142.226022,60.4146763 C143.290016,58.5237971 145.47499,58.1405134 147.118514,59.5692069 L149.532518,61.6676688 C151.170573,63.0916081 151.102124,65.3122343 149.37618,66.6302136" id="Triangle" fill="#FFBEB8"></path>
            <path d="M138.865229,88.9132784 C137.348477,88.7504595 137.316099,88.2723041 138.772313,87.8512441 L147.227261,85.4065201 C148.692697,84.9827936 149.988815,85.8754407 150.121619,87.3933901 L150.121619,87.3933901 C150.254693,88.9144346 149.123456,90.0144695 147.616249,89.8526751" id="Triangle-Copy" fill="#FFCDCC"></path>
        </g>
    </g>
</svg>