<?xml version="1.0" encoding="UTF-8" standalone="no"?>
<svg width="98px" height="20px" viewBox="0 0 98 20" version="1.1" xmlns="http://www.w3.org/2000/svg" xmlns:xlink="http://www.w3.org/1999/xlink">
    <!-- Generator: Sketch 43.1 (39012) - http://www.bohemiancoding.com/sketch -->
    <title>@1xPage 1</title>
    <desc>Created with Sketch.</desc>
    <defs>
        <polygon id="path-1" points="0 1.42005208 0 0.11796875 1.93723958 0.11796875 1.93723958 1.42005208 6.93508226e-18 1.42005208"></polygon>
        <polygon id="path-3" points="0.68125 0.22265625 19.8791667 0.22265625 19.8791667 16.088151 0.68125 16.088151"></polygon>
        <polygon id="path-5" points="10.6484375 0.457552083 10.6484375 10.3234375 0.02421875 10.3234375 0.02421875 0.457552083 10.6484375 0.457552083"></polygon>
        <polygon id="path-7" points="0 19.7777344 97.8880208 19.7777344 97.8880208 0.469140625 0 0.469140625"></polygon>
    </defs>
    <g id="All--UI" stroke="none" stroke-width="1" fill="none" fill-rule="evenodd">
        <g id="首页－完整页" transform="translate(-130.000000, -840.000000)">
            <g id="Page-1" transform="translate(130.000000, 840.000000)">
                <path d="M14.05625,19.777474 L10.3622396,19.777474 C9.98072917,19.777474 9.68255208,19.449349 9.7203125,19.0691406 L9.85963542,17.6641927 C9.88567708,17.3998698 10.1083333,17.199349 10.3726562,17.199349 L14.0445312,17.199349 C14.3101562,17.199349 14.5315104,17.3998698 14.5575521,17.6641927 L14.6981771,19.0691406 C14.7346354,19.449349 14.4364583,19.777474 14.05625,19.777474 Z" id="Fill-1" fill="#FEFEFE"></path>
                <g id="Group-5" transform="translate(0.000000, 11.965234)">
                    <mask id="mask-2" fill="white">
                        <use xlink:href="#path-1"></use>
                    </mask>
                    <g id="Clip-4"></g>
                    <path d="M0.51015625,0.11796875 L1.428125,0.11796875 C1.709375,0.11796875 1.93723958,0.345833333 1.93723958,0.628385417 C1.93723958,0.909635417 1.709375,1.1375 1.428125,1.1375 L0.51015625,1.1375 C0.22890625,1.1375 -0.000260416667,0.909635417 -0.000260416667,0.628385417 C-0.000260416667,0.345833333 0.22890625,0.11796875 0.51015625,0.11796875" id="Fill-3" fill="#FEFEFE" mask="url(#mask-2)"></path>
                </g>
                <path d="M1.88854167,8.00716146 L2.34036458,8.00716146 C2.62161458,8.00716146 2.85078125,8.23502604 2.85078125,8.51757812 C2.85078125,8.79882812 2.62161458,9.02669271 2.34036458,9.02669271 L1.88854167,9.02669271 C1.60729167,9.02669271 1.378125,8.79882812 1.378125,8.51757812 C1.378125,8.23502604 1.60729167,8.00716146 1.88854167,8.00716146" id="Fill-6" fill="#FEFEFE"></path>
                <g id="Group-10" transform="translate(0.000000, 0.246484)">
                    <mask id="mask-4" fill="white">
                        <use xlink:href="#path-3"></use>
                    </mask>
                    <g id="Clip-9"></g>
                    <path d="M12.2085938,0.222265625 C7.97291667,0.222265625 4.53932292,2.40325521 4.53932292,6.63893229 C4.53932292,7.00481771 4.56927083,7.37981771 4.62395833,7.75742187 L3.853125,7.75742187 C3.571875,7.75742187 3.34270833,7.98528646 3.34270833,8.26783854 C3.34270833,8.54908854 3.571875,8.77695312 3.853125,8.77695312 L4.83359375,8.77695312 L7.95078125,8.77695312 C7.75546875,7.69752604 7.64739583,6.60898438 7.64739583,5.59986979 C7.64739583,1.19882812 9.6890625,0.378515625 12.2085938,0.378515625 C14.728125,0.378515625 16.7697917,1.19882812 16.7697917,5.59986979 C16.7697917,10.0009115 14.728125,15.931901 12.2085938,15.931901 C10.4494792,15.931901 8.92473958,13.039974 8.16432292,9.79778646 L7.2671875,9.79778646 L5.15911458,9.79778646 L1.19166667,9.79778646 C0.910416667,9.79778646 0.68125,10.025651 0.68125,10.306901 C0.68125,10.588151 0.910416667,10.8173177 1.19166667,10.8173177 L2.68385417,10.8173177 L5.60052083,10.8173177 L6.91953125,10.8173177 C7.20078125,10.8173177 7.42994792,11.0451823 7.42994792,11.3264323 C7.42994792,11.6089844 7.20078125,11.836849 6.91953125,11.836849 L6.16171875,11.836849 L3.25546875,11.836849 C2.97291667,11.836849 2.74505208,12.0647135 2.74505208,12.3472656 C2.74505208,12.6285156 2.97291667,12.8563802 3.25546875,12.8563802 L6.86354167,12.8563802 C8.30755208,14.7391927 10.2567708,16.088151 12.2085938,16.088151 C16.0471354,16.088151 19.8791667,10.8746094 19.8791667,6.63893229 C19.8791667,2.40325521 16.4442708,0.222265625 12.2085938,0.222265625" id="Fill-8" fill="#FEFEFE" mask="url(#mask-4)"></path>
                </g>
                <path d="M15.0683594,5.85768229 C15.0683594,10.2391927 13.7884115,16.1441406 12.2089844,16.1441406 C10.6295573,16.1441406 9.34960937,10.2391927 9.34960937,5.85768229 C9.34960937,1.47617187 10.6295573,0.659765625 12.2089844,0.659765625 C13.7884115,0.659765625 15.0683594,1.47617187 15.0683594,5.85768229" id="Fill-11" fill="#FEFEFE"></path>
                <path d="M27.441276,12.852474 L30.252474,12.852474 C30.705599,12.852474 31.1053385,12.7626302 31.4503906,12.5816406 C31.7954427,12.4019531 31.9686198,12.1141927 31.9686198,11.7170573 C31.9686198,11.321224 31.7954427,11.0334635 31.4503906,10.852474 C31.1053385,10.6727865 30.705599,10.5829427 30.252474,10.5829427 L27.441276,10.5829427 L27.441276,12.852474 Z M34.7798177,17.8941406 C34.7798177,18.0842448 34.6678385,18.1779948 34.4425781,18.1779948 L32.8592448,18.1779948 C32.6925781,18.1779948 32.5089844,18.118099 32.3084635,17.9970052 C32.1079427,17.8759115 31.955599,17.7300781 31.8501302,17.5582031 L30.7277344,15.8029948 C30.2654948,15.0803385 29.706901,14.7209635 29.0519531,14.7209635 L27.441276,14.7209635 L27.441276,17.5582031 C27.441276,17.7300781 27.3813802,17.8759115 27.2602865,17.9970052 C27.1391927,18.118099 26.9920573,18.1779948 26.8214844,18.1779948 L25.580599,18.1779948 C25.408724,18.1779948 25.2615885,18.118099 25.1378906,17.9970052 C25.0154948,17.8759115 24.9529948,17.7300781 24.9529948,17.5582031 L24.9529948,9.34205729 C24.9529948,9.17018229 25.0128906,9.02304687 25.1313802,8.89934896 C25.2498698,8.77695312 25.3957031,8.71445312 25.5675781,8.71445312 L31.0115885,8.71445312 C32.019401,8.71445312 32.8449219,8.98528646 33.4894531,9.52695312 C34.1339844,10.0673177 34.456901,10.7977865 34.456901,11.7170573 C34.456901,12.9983073 33.6261719,13.8003906 31.9686198,14.1259115 C32.2329427,14.2235677 32.4764323,14.3889323 32.7016927,14.6246094 C32.925651,14.8602865 33.1834635,15.2014323 33.472526,15.650651 L34.674349,17.5582031 C34.7446615,17.680599 34.7798177,17.7925781 34.7798177,17.8941406 L34.7798177,17.8941406 Z" id="Fill-13" fill="#FEFEFE"></path>
                <path d="M37.5846354,13.8691406 L40.6523438,13.8691406 C40.609375,12.8313802 40.1002604,12.311849 39.1263021,12.311849 C38.1510417,12.311849 37.6380208,12.8313802 37.5846354,13.8691406 M36.2838542,17.3470052 C35.6067708,16.7050781 35.2682292,15.7792969 35.2682292,14.5722656 C35.2682292,13.3639323 35.609375,12.4355469 36.2903646,11.7871094 C36.9726563,11.1373698 37.9192708,10.813151 39.1289062,10.813151 C40.3385417,10.813151 41.2825521,11.1295573 41.9596354,11.7597656 C42.6367188,12.391276 42.9765625,13.297526 42.9765625,14.4759115 L42.9765625,14.8522135 C42.9765625,14.9707031 42.9375,15.0683594 42.8606771,15.1451823 C42.7838542,15.2233073 42.6848958,15.2610677 42.5677083,15.2610677 L37.5976563,15.2610677 C37.6419271,15.8027344 37.796875,16.1959635 38.0625,16.4433594 C38.3294271,16.6894531 38.7539062,16.811849 39.3398438,16.811849 C39.9244792,16.811849 40.3255208,16.6803385 40.5416667,16.4160156 C40.7565104,16.1516927 41.0234375,16.0175781 41.3398438,16.0136719 L42.3229167,16.0136719 C42.4414062,16.0136719 42.5390625,16.0527344 42.6158854,16.1295573 C42.6927083,16.2063802 42.7317708,16.3040365 42.7317708,16.422526 C42.7317708,17.6855469 41.5286458,18.3144531 39.1223958,18.3105469 C37.9075521,18.3105469 36.9622396,17.9889323 36.2838542,17.3470052" id="Fill-15" fill="#FEFEFE"></path>
                <path d="M46.5135417,12.9217448 C46.2622396,13.2628906 46.1372396,13.8097656 46.1372396,14.5623698 C46.1372396,15.3136719 46.2557292,15.861849 46.4927083,16.2042969 C46.7309896,16.5480469 47.0877604,16.7199219 47.565625,16.7199219 C48.0434896,16.7199219 48.5994792,16.5220052 49.2322917,16.1261719 L49.2322917,12.674349 C48.6645833,12.4985677 48.1880208,12.410026 47.8,12.410026 C47.1932292,12.410026 46.7635417,12.580599 46.5135417,12.9217448 M47.0148437,18.3097656 C46.0955729,18.3097656 45.3260417,17.986849 44.7088542,17.3397135 C44.0903646,16.6925781 43.7804687,15.7667969 43.7804687,14.5584635 C43.7804687,13.3514323 44.1007812,12.424349 44.7414062,11.7798177 C45.3807292,11.1352865 46.2427083,10.8136719 47.3247396,10.8136719 C47.8833333,10.8136719 48.5200521,10.925651 49.2322917,11.1496094 L49.2322917,9.12356771 C49.2322917,9.00507813 49.2713542,8.90742188 49.3481771,8.83059896 C49.425,8.75377604 49.5200521,8.71471354 49.6346354,8.71471354 L51.1059896,8.71471354 C51.2257812,8.71471354 51.3234375,8.75377604 51.4002604,8.83059896 C51.4770833,8.90742188 51.5148437,9.00507813 51.5148437,9.12356771 L51.5148437,17.7759115 C51.5148437,17.8904948 51.4770833,17.9855469 51.4002604,18.0623698 C51.3234375,18.1391927 51.2257812,18.1782552 51.1059896,18.1782552 L49.8390625,18.1782552 C49.7205729,18.1782552 49.6242187,18.1391927 49.5486979,18.0623698 C49.4744792,17.9855469 49.4367187,17.8904948 49.4367187,17.7759115 L49.4367187,17.5714844 C48.7414062,18.0636719 47.9341146,18.3097656 47.0148437,18.3097656" id="Fill-17" fill="#FEFEFE"></path>
                <path d="M56.583724,16.7460938 L57.4873698,16.6666667 L57.7321615,16.6666667 C57.850651,16.6666667 57.9483073,16.7044271 58.0251302,16.7786458 C58.1032552,16.8541667 58.1410156,16.9505208 58.1410156,17.0703125 L58.1410156,17.7760417 C58.1410156,17.8723958 58.1032552,17.9596354 58.0251302,18.0364583 C57.9483073,18.1132813 57.850651,18.1601563 57.7321615,18.1783854 C57.2829427,18.265625 56.6983073,18.3098958 55.9769531,18.3098958 C54.085026,18.3098958 53.1384115,17.3203125 53.1384115,15.3398438 L53.1384115,9.12369792 C53.1384115,9.00520833 53.177474,8.90755208 53.2542969,8.83072917 C53.3311198,8.75390625 53.427474,8.71484375 53.5420573,8.71484375 L55.0199219,8.71484375 C55.1345052,8.71484375 55.2295573,8.75390625 55.3063802,8.83072917 C55.3845052,8.90755208 55.4222656,9.00520833 55.4222656,9.12369792 L55.4222656,11.328125 L57.2634115,11.328125 C57.3779948,11.328125 57.474349,11.3658854 57.5511719,11.4401042 C57.6279948,11.515625 57.6657552,11.6119792 57.6657552,11.7304688 L57.6657552,12.515625 C57.6657552,12.6354167 57.6279948,12.7317708 57.5511719,12.8072917 C57.474349,12.8815104 57.3779948,12.9192708 57.2634115,12.9192708 L55.4222656,12.9192708 L55.4222656,15.3398438 C55.4222656,15.7890625 55.5277344,16.1354167 55.7386719,16.3802083 C55.9496094,16.6236979 56.2308594,16.7460938 56.583724,16.7460938" id="Fill-19" fill="#FEFEFE"></path>
                <path d="M61.0647135,13.8691406 L64.1324219,13.8691406 C64.0894531,12.8313802 63.5803385,12.311849 62.6050781,12.311849 C61.6311198,12.311849 61.118099,12.8313802 61.0647135,13.8691406 M59.7639323,17.3470052 C59.086849,16.7050781 58.7483073,15.7792969 58.7483073,14.5722656 C58.7483073,13.3639323 59.0894531,12.4355469 59.7704427,11.7871094 C60.4527344,11.1373698 61.399349,10.813151 62.6089844,10.813151 C63.8186198,10.813151 64.7626302,11.1295573 65.4397135,11.7597656 C66.1167969,12.391276 66.4566406,13.297526 66.4566406,14.4759115 L66.4566406,14.8522135 C66.4566406,14.9707031 66.4175781,15.0683594 66.3407552,15.1451823 C66.2639323,15.2233073 66.164974,15.2610677 66.0464844,15.2610677 L61.0777344,15.2610677 C61.1220052,15.8027344 61.2769531,16.1959635 61.5425781,16.4433594 C61.8095052,16.6894531 62.2352865,16.811849 62.8199219,16.811849 C63.4045573,16.811849 63.805599,16.6803385 64.0217448,16.4160156 C64.2365885,16.1516927 64.5035156,16.0175781 64.8199219,16.0136719 L65.8029948,16.0136719 C65.9214844,16.0136719 66.0191406,16.0527344 66.0959635,16.1295573 C66.1727865,16.2063802 66.211849,16.3040365 66.211849,16.422526 C66.211849,17.6855469 65.008724,18.3144531 62.602474,18.3105469 C61.3876302,18.3105469 60.4423177,17.9889323 59.7639323,17.3470052" id="Fill-21" fill="#FEFEFE"></path>
                <path d="M69.818099,15.4134115 C69.6397135,15.563151 69.5511719,15.7558594 69.5511719,15.9941406 C69.5511719,16.2311198 69.6436198,16.4277344 69.8285156,16.5813802 C70.0134115,16.735026 70.2751302,16.811849 70.6136719,16.811849 C71.2907552,16.811849 71.944401,16.6139323 72.5733073,16.218099 L72.5733073,15.1894531 L70.5472656,15.1894531 C70.239974,15.1894531 69.9964844,15.2636719 69.818099,15.4134115 M68.1358073,17.702474 C67.552474,17.2988281 67.2608073,16.7259115 67.2608073,15.9876302 C67.2608073,15.2480469 67.552474,14.6803385 68.1358073,14.2845052 C68.7191406,13.8886719 69.4691406,13.6907552 70.3884115,13.6907552 L72.5733073,13.6907552 C72.5733073,13.1764323 72.4665365,12.8170573 72.2503906,12.6152344 C72.0342448,12.4121094 71.6579427,12.311849 71.1188802,12.311849 C70.5798177,12.311849 70.2009115,12.4446615 69.9834635,12.7102865 C69.7647135,12.9772135 69.4977865,13.110026 69.1813802,13.110026 L68.1983073,13.110026 C68.0798177,13.110026 67.9821615,13.0722656 67.9040365,12.9941406 C67.8272135,12.9173177 67.7894531,12.8222656 67.7894531,12.7076823 C67.7894531,11.4446615 68.9873698,10.813151 71.3858073,10.813151 C72.4326823,10.813151 73.272526,11.047526 73.9066406,11.516276 C74.5394531,11.985026 74.8571615,12.7089844 74.8571615,13.6907552 L74.8571615,17.7753906 C74.8571615,17.8938802 74.819401,17.9915365 74.7451823,18.0657552 C74.6696615,18.141276 74.5733073,18.1790365 74.4548177,18.1790365 L73.1813802,18.1790365 C73.0615885,18.1790365 72.9652344,18.139974 72.8897135,18.063151 C72.8154948,17.9863281 72.7777344,17.889974 72.7777344,17.7753906 L72.7777344,17.5709635 C72.0824219,18.0683594 71.2816406,18.3157552 70.3727865,18.313151 C69.4652344,18.311849 68.7191406,18.1074219 68.1358073,17.702474" id="Fill-23" fill="#FEFEFE"></path>
                <path d="M77.2428385,17.05 C76.4615885,16.2622396 76.0709635,15.0578125 76.0709635,13.4367187 C76.0709635,11.815625 76.4798177,10.6151042 77.296224,9.83385417 C78.1113281,9.05260417 79.3352865,8.66197917 80.968099,8.66197917 L82.4394531,8.66197917 C83.4121094,8.66197917 84.2884115,8.89375 85.0696615,9.35859375 C85.8496094,9.82213542 86.2402344,10.4028646 86.2402344,11.096875 C86.2402344,11.3572917 86.1634115,11.5434896 86.0097656,11.6541667 C85.8561198,11.7674479 85.7063802,11.8234375 85.5605469,11.8234375 L84.7753906,11.8234375 C84.3977865,11.8234375 84.0957031,11.6072917 83.8717448,11.1763021 C83.6464844,10.7453125 83.093099,10.5304687 82.2076823,10.5304687 L81.0345052,10.5304687 C80.0696615,10.5304687 79.4173177,10.7361979 79.0735677,11.1502604 C78.7311198,11.5643229 78.5592448,12.3247396 78.5592448,13.4341146 C78.5592448,14.5421875 78.7128906,15.3091146 79.0214844,15.7335937 C79.328776,16.1580729 79.8782552,16.3703125 80.671224,16.3703125 L82.0240885,16.3703125 C82.7324219,16.3703125 83.2376302,16.2348958 83.5410156,15.9640625 C83.8457031,15.6932292 84.000651,15.3052083 84.0097656,14.7986979 L82.5188802,14.7986979 C82.3470052,14.7986979 82.2011719,14.7388021 82.0800781,14.6177083 C81.9589844,14.4979167 81.8990885,14.3507812 81.8990885,14.1789062 L81.8990885,13.6645833 C81.8990885,13.4927083 81.9589844,13.346875 82.0800781,13.2257812 C82.2011719,13.1046875 82.3470052,13.0434896 82.5188802,13.0434896 L85.8313802,13.0434896 C86.0032552,13.0434896 86.1490885,13.1046875 86.2701823,13.2257812 C86.391276,13.346875 86.452474,13.4927083 86.452474,13.6645833 L86.452474,14.3963542 C86.452474,15.6294271 86.0826823,16.5760417 85.343099,17.2375 C84.6035156,17.9002604 83.5201823,18.2309896 82.0904948,18.2309896 L80.6048177,18.2309896 C79.1438802,18.2309896 78.0240885,17.8364583 77.2428385,17.05" id="Fill-25" fill="#FEFEFE"></path>
                <g id="Group-29" transform="translate(87.239583, 8.058984)">
                    <mask id="mask-6" fill="white">
                        <use xlink:href="#path-5"></use>
                    </mask>
                    <g id="Clip-28"></g>
                    <path d="M7.49427083,3.03177083 C7.05026042,2.503125 6.33151042,2.24010417 5.33932292,2.24010417 C4.34713542,2.24010417 3.62838542,2.503125 3.18177083,3.03177083 C2.73515625,3.55911458 2.51119792,4.34557292 2.51119792,5.39114583 C2.51119792,6.43541667 2.73515625,7.22057292 3.18177083,7.74661458 C3.62838542,8.27265625 4.34713542,8.53567708 5.33932292,8.53567708 C6.33151042,8.53567708 7.05026042,8.27265625 7.49427083,7.74661458 C7.93828125,7.22057292 8.1609375,6.43541667 8.1609375,5.39114583 C8.1609375,4.34557292 7.93828125,3.55911458 7.49427083,3.03177083 M9.29895833,9.13854167 C8.39921875,9.92890625 7.08020833,10.3234375 5.33932292,10.3234375 C3.59973958,10.3234375 2.27942708,9.92890625 1.37708333,9.13854167 C0.474739583,8.34947917 0.02421875,7.09947917 0.02421875,5.38723958 C0.02421875,3.67630208 0.474739583,2.42630208 1.37708333,1.63984375 C2.27942708,0.852083333 3.59973958,0.457552083 5.33932292,0.457552083 C7.08020833,0.457552083 8.39921875,0.852083333 9.29895833,1.63984375 C10.1986979,2.42630208 10.6492187,3.67630208 10.6492187,5.38723958 C10.6492187,7.09947917 10.1986979,8.34947917 9.29895833,9.13854167" id="Fill-27" fill="#FEFEFE" mask="url(#mask-6)"></path>
                </g>
                <polygon id="Fill-30" fill="#FEFEFE" points="26.1671875 6.50481771 25.7661458 6.50481771 25.7661458 3.41106771 24.6736979 3.41106771 24.6736979 3.05429687 27.2596354 3.05429687 27.2596354 3.41106771 26.1671875 3.41106771"></polygon>
                <path d="M28.9010417,3.87083333 C29.015625,3.87083333 29.1184896,3.87994792 29.2096354,3.89817708 L29.15625,4.26276042 C29.0481771,4.23932292 28.9544271,4.22630208 28.8723958,4.22630208 C28.6627604,4.22630208 28.484375,4.31223958 28.3359375,4.48151042 C28.1875,4.65208333 28.1132812,4.86432292 28.1132812,5.11692708 L28.1132812,6.50494792 L27.7200521,6.50494792 L27.7200521,3.91770833 L28.0442708,3.91770833 L28.0885417,4.396875 L28.1080729,4.396875 C28.203125,4.22890625 28.3190104,4.09869792 28.4544271,4.00755208 C28.5898437,3.91640625 28.7382812,3.87083333 28.9010417,3.87083333" id="Fill-32" fill="#FEFEFE"></path>
                <path d="M30.4002604,6.22890625 C30.64375,6.22890625 30.8351563,6.1625 30.9744792,6.02838542 C31.1138021,5.89427083 31.1841146,5.70677083 31.1841146,5.4671875 L31.1841146,5.2328125 L30.7921875,5.24973958 C30.4809896,5.26015625 30.2557292,5.30833333 30.1177083,5.39427083 C29.9796875,5.48020833 29.9119792,5.61302083 29.9119792,5.7953125 C29.9119792,5.9359375 29.9536458,6.04401042 30.0395833,6.11822917 C30.1255208,6.19244792 30.2453125,6.22890625 30.4002604,6.22890625 L30.4002604,6.22890625 Z M31.2856771,6.50494792 L31.2075521,6.13645833 L31.1880208,6.13645833 C31.0591146,6.29921875 30.9302083,6.40859375 30.8026042,6.46588542 C30.6736979,6.52317708 30.5135417,6.553125 30.3221354,6.553125 C30.065625,6.553125 29.8638021,6.48671875 29.7192708,6.35390625 C29.5734375,6.22239583 29.5005208,6.03359375 29.5005208,5.79010417 C29.5005208,5.26796875 29.9184896,4.99322917 30.753125,4.96848958 L31.1932292,4.95416667 L31.1932292,4.79401042 C31.1932292,4.59088542 31.1489583,4.43984375 31.0617188,4.34348958 C30.9744792,4.24713542 30.8351563,4.19895833 30.64375,4.19895833 C30.4276042,4.19895833 30.1828125,4.26536458 29.9119792,4.396875 L29.7908854,4.09739583 C29.9184896,4.02838542 30.0578125,3.97369792 30.2101563,3.93463542 C30.3611979,3.89557292 30.5135417,3.87473958 30.6671875,3.87473958 C30.9744792,3.87473958 31.2036458,3.94375 31.3520833,4.08046875 C31.5018229,4.21848958 31.5760417,4.43723958 31.5760417,4.73932292 L31.5760417,6.50494792 L31.2856771,6.50494792 Z" id="Fill-34" fill="#FEFEFE"></path>
                <path d="M32.9497396,6.50481771 L31.9679688,3.91757813 L32.3872396,3.91757813 L32.9445313,5.45143229 C33.0708333,5.81080729 33.14375,6.04388021 33.1671875,6.15195313 L33.1854167,6.15195313 C33.2023438,6.06731771 33.2570313,5.89544271 33.3494792,5.63372396 C33.4419271,5.37070313 33.6489583,4.79908854 33.9692708,3.91757813 L34.3885417,3.91757813 L33.4080729,6.50481771 L32.9497396,6.50481771 Z" id="Fill-36" fill="#FEFEFE"></path>
                <path d="M35.7916667,4.19882812 C35.5833333,4.19882812 35.4179687,4.26653646 35.2942708,4.40195312 C35.1705729,4.53736979 35.0989583,4.72486979 35.0768229,4.96315104 L36.4283854,4.96315104 C36.4283854,4.71575521 36.3736979,4.52695312 36.2643229,4.39544271 C36.1536458,4.26393229 35.9960937,4.19882812 35.7916667,4.19882812 M35.8984375,6.55299479 C35.515625,6.55299479 35.2135417,6.43580729 34.9921875,6.20273437 C34.7708333,5.96966146 34.6601562,5.64674479 34.6601562,5.23268229 C34.6601562,4.81601562 34.7630208,4.48398437 34.96875,4.23919271 C35.1744792,3.99309896 35.4505208,3.87070312 35.7955729,3.87070312 C36.1197917,3.87070312 36.3776042,3.97747396 36.5664062,4.19101562 C36.7552083,4.40325521 36.8489583,4.68580729 36.8489583,5.03476562 L36.8489583,5.28216146 L35.0664062,5.28216146 C35.0742187,5.58554687 35.1510417,5.81731771 35.296875,5.97356771 C35.4427083,6.13111979 35.6484375,6.20924479 35.9114583,6.20924479 C36.1901042,6.20924479 36.4661458,6.15195312 36.7382812,6.03606771 L36.7382812,6.38502604 C36.6002604,6.44492187 36.46875,6.48789062 36.3450521,6.51263021 C36.2213542,6.53867187 36.0729167,6.55299479 35.8984375,6.55299479" id="Fill-38" fill="#FEFEFE"></path>
                <mask id="mask-8" fill="white">
                    <use xlink:href="#path-7"></use>
                </mask>
                <g id="Clip-41"></g>
                <polygon id="Fill-40" fill="#FEFEFE" mask="url(#mask-8)" points="37.5169271 6.50429688 37.9088542 6.50429688 37.9088542 2.83111979 37.5169271 2.83111979"></polygon>
                <path d="M41.5824219,6.50481771 L40.411849,3.44492187 L40.3923177,3.44492187 C40.4144531,3.68841146 40.4261719,3.97617187 40.4261719,4.30950521 L40.4261719,6.50481771 L40.0550781,6.50481771 L40.0550781,3.05429687 L40.6592448,3.05429687 L41.7516927,5.90065104 L41.771224,5.90065104 L42.8740885,3.05429687 L43.4730469,3.05429687 L43.4730469,6.50481771 L43.0720052,6.50481771 L43.0720052,4.28085937 C43.0720052,4.02695312 43.0824219,3.74960937 43.1045573,3.45013021 L43.0863281,3.45013021 L41.9066406,6.50481771 L41.5824219,6.50481771 Z" id="Fill-42" fill="#FEFEFE" mask="url(#mask-8)"></path>
                <path d="M45.0665365,6.22890625 C45.310026,6.22890625 45.5014323,6.1625 45.6407552,6.02838542 C45.7800781,5.89427083 45.8503906,5.70677083 45.8503906,5.4671875 L45.8503906,5.2328125 L45.4584635,5.24973958 C45.1472656,5.26015625 44.9220052,5.30833333 44.7852865,5.39427083 C44.6472656,5.48020833 44.5782552,5.61302083 44.5782552,5.7953125 C44.5782552,5.9359375 44.621224,6.04401042 44.7071615,6.11822917 C44.793099,6.19244792 44.9128906,6.22890625 45.0665365,6.22890625 L45.0665365,6.22890625 Z M45.9519531,6.50494792 L45.8738281,6.13645833 L45.8542969,6.13645833 C45.7253906,6.29921875 45.5977865,6.40859375 45.4688802,6.46588542 C45.341276,6.52317708 45.1811198,6.553125 44.9884115,6.553125 C44.731901,6.553125 44.5313802,6.48671875 44.3855469,6.35390625 C44.2397135,6.22239583 44.168099,6.03359375 44.168099,5.79010417 C44.168099,5.26796875 44.5847656,4.99322917 45.4207031,4.96848958 L45.8595052,4.95416667 L45.8595052,4.79401042 C45.8595052,4.59088542 45.8165365,4.43984375 45.7292969,4.34348958 C45.6407552,4.24713542 45.5014323,4.19895833 45.310026,4.19895833 C45.0938802,4.19895833 44.8503906,4.26536458 44.5782552,4.396875 L44.4571615,4.09739583 C44.5847656,4.02838542 44.7240885,3.97369792 44.8764323,3.93463542 C45.028776,3.89557292 45.1811198,3.87473958 45.3334635,3.87473958 C45.6420573,3.87473958 45.8699219,3.94375 46.0183594,4.08046875 C46.168099,4.21848958 46.2423177,4.43723958 46.2423177,4.73932292 L46.2423177,6.50494792 L45.9519531,6.50494792 Z" id="Fill-43" fill="#FEFEFE" mask="url(#mask-8)"></path>
                <path d="M48.0266927,6.22447917 C48.2949219,6.22447917 48.4876302,6.1515625 48.608724,6.00572917 C48.7298177,5.85989583 48.7897135,5.62552083 48.7897135,5.30130208 L48.7897135,5.21927083 C48.7897135,4.85208333 48.7285156,4.59036458 48.6061198,4.43411458 C48.485026,4.2765625 48.2897135,4.1984375 48.0227865,4.1984375 C47.7923177,4.1984375 47.6165365,4.28828125 47.4941406,4.46666667 C47.3730469,4.64505208 47.311849,4.89765625 47.311849,5.22317708 C47.311849,5.55390625 47.3730469,5.80260417 47.4928385,5.971875 C47.6152344,6.13984375 47.7923177,6.22447917 48.0266927,6.22447917 L48.0266927,6.22447917 Z M48.8105469,6.15807292 L48.7897135,6.15807292 C48.608724,6.42109375 48.3378906,6.55260417 47.9772135,6.55260417 C47.6386719,6.55260417 47.375651,6.43671875 47.186849,6.20494792 C46.999349,5.97447917 46.905599,5.64505208 46.905599,5.21927083 C46.905599,4.7921875 46.999349,4.46145833 47.188151,4.22447917 C47.3769531,3.98880208 47.641276,3.8703125 47.9772135,3.8703125 C48.327474,3.8703125 48.5970052,3.99791667 48.7845052,4.253125 L48.8144531,4.253125 L48.7988281,4.06692708 L48.7897135,3.88463542 L48.7897135,2.83255208 L49.1816406,2.83255208 L49.1816406,6.50442708 L48.8626302,6.50442708 L48.8105469,6.15807292 Z" id="Fill-44" fill="#FEFEFE" mask="url(#mask-8)"></path>
                <path d="M50.9989583,4.19882812 C50.790625,4.19882812 50.6252604,4.26653646 50.5015625,4.40195312 C50.3778646,4.53736979 50.30625,4.72486979 50.2841146,4.96315104 L51.6356771,4.96315104 C51.6356771,4.71575521 51.5809896,4.52695312 51.4716146,4.39544271 C51.3609375,4.26393229 51.2033854,4.19882812 50.9989583,4.19882812 M51.1057292,6.55299479 C50.7229167,6.55299479 50.4208333,6.43580729 50.1994792,6.20273437 C49.978125,5.96966146 49.8674479,5.64674479 49.8674479,5.23268229 C49.8674479,4.81601562 49.9703125,4.48398437 50.1760417,4.23919271 C50.3817708,3.99309896 50.6578125,3.87070312 51.0028646,3.87070312 C51.3270833,3.87070312 51.5848958,3.97747396 51.7736979,4.19101562 C51.9625,4.40325521 52.05625,4.68580729 52.05625,5.03476562 L52.05625,5.28216146 L50.2736979,5.28216146 C50.2815104,5.58554687 50.3583333,5.81731771 50.5041667,5.97356771 C50.65,6.13111979 50.8544271,6.20924479 51.11875,6.20924479 C51.3973958,6.20924479 51.6734375,6.15195312 51.9455729,6.03606771 L51.9455729,6.38502604 C51.8075521,6.44492187 51.6760417,6.48789062 51.5523437,6.51263021 C51.4286458,6.53867187 51.2802083,6.55299479 51.1057292,6.55299479" id="Fill-45" fill="#FEFEFE" mask="url(#mask-8)"></path>
                <polygon id="Fill-46" fill="#FEFEFE" mask="url(#mask-8)" points="55.963151 6.50481771 54.0386719 6.50481771 54.0386719 3.05429687 55.963151 3.05429687 55.963151 3.41106771 54.4410156 3.41106771 54.4410156 4.52304687 55.8720052 4.52304687 55.8720052 4.87721354 54.4410156 4.87721354 54.4410156 6.14674479 55.963151 6.14674479"></polygon>
                <path d="M57.3752604,6.22890625 C57.61875,6.22890625 57.8101562,6.1625 57.9494792,6.02838542 C58.0888021,5.89427083 58.1591146,5.70677083 58.1591146,5.4671875 L58.1591146,5.2328125 L57.7671875,5.24973958 C57.4559896,5.26015625 57.2307292,5.30833333 57.0927083,5.39427083 C56.9546875,5.48020833 56.8869792,5.61302083 56.8869792,5.7953125 C56.8869792,5.9359375 56.9286458,6.04401042 57.0145833,6.11822917 C57.1005208,6.19244792 57.2203125,6.22890625 57.3752604,6.22890625 L57.3752604,6.22890625 Z M58.2606771,6.50494792 L58.1825521,6.13645833 L58.1630208,6.13645833 C58.0341146,6.29921875 57.9052083,6.40859375 57.7776042,6.46588542 C57.6486979,6.52317708 57.4885417,6.553125 57.2971354,6.553125 C57.040625,6.553125 56.8388021,6.48671875 56.6942708,6.35390625 C56.5484375,6.22239583 56.4755208,6.03359375 56.4755208,5.79010417 C56.4755208,5.26796875 56.8934896,4.99322917 57.7294271,4.96848958 L58.1682292,4.95416667 L58.1682292,4.79401042 C58.1682292,4.59088542 58.1252604,4.43984375 58.0367187,4.34348958 C57.9494792,4.24713542 57.8101562,4.19895833 57.61875,4.19895833 C57.4026042,4.19895833 57.1578125,4.26536458 56.8869792,4.396875 L56.7658854,4.09739583 C56.8934896,4.02838542 57.0328125,3.97369792 57.1851562,3.93463542 C57.3375,3.89557292 57.4885417,3.87473958 57.6421875,3.87473958 C57.9494792,3.87473958 58.1786458,3.94375 58.3270833,4.08046875 C58.4768229,4.21848958 58.5510417,4.43723958 58.5510417,4.73932292 L58.5510417,6.50494792 L58.2606771,6.50494792 Z" id="Fill-47" fill="#FEFEFE" mask="url(#mask-8)"></path>
                <path d="M61.0272135,5.79908854 C61.0272135,6.03997396 60.9373698,6.22617187 60.7576823,6.35638021 C60.5779948,6.48658854 60.3266927,6.55299479 60.002474,6.55299479 C59.660026,6.55299479 59.3917969,6.49830729 59.2003906,6.39023437 L59.2003906,6.02565104 C59.3240885,6.08945312 59.456901,6.13893229 59.6001302,6.17539062 C59.7420573,6.21054687 59.8800781,6.22877604 60.0115885,6.22877604 C60.2160156,6.22877604 60.3735677,6.19622396 60.4842448,6.13111979 C60.5936198,6.06601562 60.6496094,5.96575521 60.6496094,5.83164062 C60.6496094,5.73138021 60.6053385,5.64544271 60.518099,5.57382812 C60.4308594,5.50221354 60.2602865,5.41757812 60.0076823,5.31992187 C59.7667969,5.23007812 59.5949219,5.15195312 59.4933594,5.08554687 C59.3917969,5.01783854 59.3175781,4.94231771 59.2667969,4.85768229 C59.2173177,4.77174479 59.1925781,4.67018229 59.1925781,4.55299479 C59.1925781,4.34205729 59.2785156,4.17539062 59.4503906,4.05429687 C59.6209635,3.93190104 59.8566406,3.87070312 60.1561198,3.87070312 C60.4347656,3.87070312 60.706901,3.92799479 60.972526,4.03997396 L60.8332031,4.35898437 C60.5740885,4.25221354 60.3384115,4.19882812 60.127474,4.19882812 C59.9425781,4.19882812 59.8019531,4.22747396 59.706901,4.28606771 C59.613151,4.34466146 59.564974,4.42408854 59.564974,4.52695312 C59.564974,4.59596354 59.5832031,4.65585937 59.6183594,4.70403646 C59.6548177,4.75221354 59.7108073,4.79908854 59.7902344,4.84335937 C59.8683594,4.88763021 60.019401,4.95143229 60.2433594,5.03476562 C60.550651,5.14674479 60.7576823,5.25872396 60.8644531,5.37200521 C60.972526,5.48528646 61.0272135,5.62721354 61.0272135,5.79908854" id="Fill-48" fill="#FEFEFE" mask="url(#mask-8)"></path>
                <path d="M61.2535156,3.91783854 L61.6740885,3.91783854 L62.2404948,5.39309896 C62.3654948,5.73033854 62.4423177,5.97382812 62.4722656,6.12226562 L62.4904948,6.12226562 C62.5113281,6.04283854 62.5542969,5.90481771 62.619401,5.71080729 C62.6845052,5.51679687 62.8980469,4.91914062 63.260026,3.91783854 L63.680599,3.91783854 L62.5686198,6.86445312 C62.4579427,7.15481771 62.3303385,7.36184896 62.181901,7.48294271 C62.0360677,7.60533854 61.8550781,7.66653646 61.6402344,7.66653646 C61.5217448,7.66653646 61.4032552,7.65351562 61.2860677,7.62617187 L61.2860677,7.31236979 C61.3733073,7.33190104 61.4696615,7.34101562 61.5777344,7.34101562 C61.8459635,7.34101562 62.0386719,7.18997396 62.1532552,6.88789062 L62.2964844,6.51940104 L61.2535156,3.91783854 Z" id="Fill-49" fill="#FEFEFE" mask="url(#mask-8)"></path>
                <path d="M67.4688802,6.50481771 L66.9949219,4.98658854 C66.964974,4.89414063 66.9089844,4.68320313 66.8269531,4.35507813 L66.808724,4.35507813 C66.7449219,4.62981771 66.6902344,4.84205729 66.6433594,4.99179688 L66.153776,6.50481771 L65.700651,6.50481771 L64.9949219,3.91757813 L65.4063802,3.91757813 C65.5730469,4.56731771 65.699349,5.06341146 65.7865885,5.40325521 C65.8738281,5.74309896 65.9246094,5.97096354 65.9376302,6.08945313 L65.9558594,6.08945313 C65.9740885,5.99960938 66.0014323,5.88372396 66.0391927,5.74179688 C66.0782552,5.59856771 66.1121094,5.48658854 66.1394531,5.40325521 L66.6147135,3.91757813 L67.0391927,3.91757813 L67.5014323,5.40325521 C67.589974,5.67278646 67.6498698,5.90065104 67.6811198,6.08554688 L67.700651,6.08554688 C67.7071615,6.02825521 67.7240885,5.94101563 67.7514323,5.82252604 C67.778776,5.70533854 67.9428385,5.06992188 68.2436198,3.91757813 L68.6498698,3.91757813 L67.933724,6.50481771 L67.4688802,6.50481771 Z" id="Fill-50" fill="#FEFEFE" mask="url(#mask-8)"></path>
                <path d="M69.1171875,6.50429687 L69.5091146,6.50429687 L69.5091146,3.91705729 L69.1171875,3.91705729 L69.1171875,6.50429687 Z M69.0833333,3.21653646 C69.0833333,3.12669271 69.1054687,3.06158854 69.1497396,3.01992187 C69.1940104,2.97825521 69.2486979,2.95742187 69.3151042,2.95742187 C69.3776042,2.95742187 69.4322917,2.97825521 69.4778646,3.02122396 C69.5234375,3.06289062 69.546875,3.12929687 69.546875,3.21653646 C69.546875,3.30507812 69.5234375,3.37018229 69.4778646,3.41315104 C69.4322917,3.45742187 69.3776042,3.47825521 69.3151042,3.47825521 C69.2486979,3.47825521 69.1940104,3.45742187 69.1497396,3.41315104 C69.1054687,3.37018229 69.0833333,3.30507812 69.0833333,3.21653646 L69.0833333,3.21653646 Z" id="Fill-51" fill="#FEFEFE" mask="url(#mask-8)"></path>
                <path d="M71.1755208,6.22890625 C71.2445312,6.22890625 71.3109375,6.22369792 71.3760417,6.21328125 C71.4411458,6.20286458 71.4919271,6.19244792 71.5296875,6.18203125 L71.5296875,6.48151042 C71.4867187,6.50234375 71.4242187,6.51927083 71.3408854,6.53229167 C71.2588542,6.5453125 71.1846354,6.553125 71.1195312,6.553125 C70.6182292,6.553125 70.3682292,6.28880208 70.3682292,5.76145833 L70.3682292,4.22239583 L69.9971354,4.22239583 L69.9971354,4.03359375 L70.3682292,3.87083333 L70.5335937,3.31875 L70.7601562,3.31875 L70.7601562,3.91770833 L71.5101562,3.91770833 L71.5101562,4.22239583 L70.7601562,4.22239583 L70.7601562,5.74453125 C70.7601562,5.90078125 70.7966146,6.02057292 70.8708333,6.10390625 C70.9450521,6.18723958 71.0466146,6.22890625 71.1755208,6.22890625" id="Fill-52" fill="#FEFEFE" mask="url(#mask-8)"></path>
                <path d="M73.8165365,6.50481771 L73.8165365,4.83164063 C73.8165365,4.62070313 73.7683594,4.46315104 73.6733073,4.35898438 C73.5769531,4.25481771 73.4272135,4.20273438 73.2214844,4.20273438 C72.949349,4.20273438 72.7514323,4.27825521 72.6251302,4.42539063 C72.5001302,4.57382813 72.4376302,4.81601563 72.4376302,5.15195313 L72.4376302,6.50481771 L72.0470052,6.50481771 L72.0470052,2.83164063 L72.4376302,2.83164063 L72.4376302,3.94361979 C72.4376302,4.07773438 72.4324219,4.18841146 72.419401,4.27695313 L72.4428385,4.27695313 C72.5196615,4.15195313 72.6290365,4.05429688 72.7722656,3.98268229 C72.9141927,3.91106771 73.0769531,3.87460938 73.2592448,3.87460938 C73.575651,3.87460938 73.8139323,3.95013021 73.9714844,4.10117188 C74.1290365,4.25091146 74.2084635,4.49049479 74.2084635,4.81731771 L74.2084635,6.50481771 L73.8165365,6.50481771 Z" id="Fill-53" fill="#FEFEFE" mask="url(#mask-8)"></path>
            </g>
        </g>
    </g>
</svg>