<?xml version="1.0" encoding="UTF-8" standalone="no"?>
<svg width="14px" height="14px" viewBox="0 0 14 14" version="1.1" xmlns="http://www.w3.org/2000/svg" xmlns:xlink="http://www.w3.org/1999/xlink">
    <!-- Generator: Sketch 43.1 (39012) - http://www.bohemiancoding.com/sketch -->
    <title>linfo-outline copy 2</title>
    <desc>Created with Sketch.</desc>
    <defs></defs>
    <g id="All--UI" stroke="none" stroke-width="1" fill="none" fill-rule="evenodd">
        <g id="mobile_billing" transform="translate(-24.000000, -182.000000)" fill="#21A8A3">
            <g id="time_selection" transform="translate(24.000000, 156.000000)">
                <g id="Group" transform="translate(0.000000, 26.000000)">
                    <g id="linfo-outline-copy-2">
                        <path d="M6.3,10.5 L7.7,10.5 L7.7,6.3 L6.3,6.3 L6.3,10.5 L6.3,10.5 Z M7,0 C3.15,0 0,3.15 0,7 C0,10.85 3.15,14 7,14 C10.85,14 14,10.85 14,7 C14,3.15 10.85,0 7,0 L7,0 Z M7,12.6 C3.92,12.6 1.4,10.08 1.4,7 C1.4,3.92 3.92,1.4 7,1.4 C10.08,1.4 12.6,3.92 12.6,7 C12.6,10.08 10.08,12.6 7,12.6 L7,12.6 Z M6.3,4.9 L7.7,4.9 L7.7,3.5 L6.3,3.5 L6.3,4.9 L6.3,4.9 Z" id="Shape"></path>
                    </g>
                </g>
            </g>
        </g>
    </g>
</svg>