<?xml version="1.0" encoding="UTF-8" standalone="no"?>
<svg width="16px" height="16px" viewBox="0 0 16 16" version="1.1" xmlns="http://www.w3.org/2000/svg" xmlns:xlink="http://www.w3.org/1999/xlink">
    <!-- Generator: Sketch 43.1 (39012) - http://www.bohemiancoding.com/sketch -->
    <title>info-outline</title>
    <desc>Created with Sketch.</desc>
    <defs></defs>
    <g id="All--UI" stroke="none" stroke-width="1" fill="none" fill-rule="evenodd">
        <g id="web_detail" transform="translate(-125.000000, -1236.000000)" fill="#6F6F6F">
            <g id="Group-20" transform="translate(100.000000, 102.000000)">
                <g id="Group-16" transform="translate(1.000000, 867.000000)">
                    <g id="Group-2" transform="translate(24.000000, 267.000000)">
                        <g id="info-outline">
                            <path d="M7.2,12 L8.8,12 L8.8,7.2 L7.2,7.2 L7.2,12 L7.2,12 Z M8,0 C3.6,0 0,3.6 0,8 C0,12.4 3.6,16 8,16 C12.4,16 16,12.4 16,8 C16,3.6 12.4,0 8,0 L8,0 Z M8,14.4 C4.48,14.4 1.6,11.52 1.6,8 C1.6,4.48 4.48,1.6 8,1.6 C11.52,1.6 14.4,4.48 14.4,8 C14.4,11.52 11.52,14.4 8,14.4 L8,14.4 Z M7.2,5.6 L8.8,5.6 L8.8,4 L7.2,4 L7.2,5.6 L7.2,5.6 Z" id="Shape"></path>
                        </g>
                    </g>
                </g>
            </g>
        </g>
    </g>
</svg>