<?xml version="1.0" encoding="UTF-8" standalone="no"?>
<svg width="143px" height="120px" viewBox="0 0 143 120" version="1.1" xmlns="http://www.w3.org/2000/svg" xmlns:xlink="http://www.w3.org/1999/xlink">
    <!-- Generator: Sketch 43.1 (39012) - http://www.bohemiancoding.com/sketch -->
    <title>mdpi/Group 7</title>
    <desc>Created with Sketch.</desc>
    <defs>
        <rect id="path-1" x="3.09842518" y="14.789406" width="1.07507428" height="5.82612962"></rect>
        <rect id="path-2" x="3.53544055" y="6.98218187" width="1.11658585" height="5.6541677"></rect>
        <rect id="path-3" x="0" y="7.12111608" width="63.3661239" height="77.1454242" rx="6"></rect>
        <path d="M15.5426342,5.4450328 C15.5426342,3.78975303 16.8814962,2.44788365 18.5513048,2.44788365 L21.8558093,2.44788365 L21.8558093,2.44788365 C21.9890846,1.09595484 23.4433732,-1.22099903e-13 25.0885506,-1.22099903e-13 L38.2508208,-1.22099903e-13 C39.9029392,-1.22099903e-13 41.4538208,1.32424321 41.6333453,2.44788365 L41.6333453,2.44788365 L44.819082,2.44788365 C46.4783706,2.44788365 47.8234898,3.79133033 47.8234898,5.4450328 L47.8234898,10.0582303 C47.8234898,11.7135101 46.4775198,13.0553795 44.8155732,13.0553795 L18.5505508,13.0553795 C16.8893243,13.0553795 15.5426342,11.7119328 15.5426342,10.0582303 L15.5426342,5.4450328 Z" id="path-4"></path>
        <rect id="path-5" x="33.1213235" y="32.5517713" width="67.6621324" height="83.0045703" rx="6"></rect>
        <path d="M49.7176956,30.5222749 C49.7176956,28.8661579 51.0656735,27.5236098 52.7137362,27.5236098 L56.4588826,27.5236098 L56.4588826,27.5236098 C56.6011935,26.0690028 58.0578878,24.8898109 59.7110543,24.8898109 L74.1651589,24.8898109 C75.8189728,24.8898109 77.3684612,26.2067104 77.5772685,27.5236098 L77.5772685,27.5236098 L81.1916078,27.5236098 C82.8459635,27.5236098 84.1870838,28.8664021 84.1870838,30.5222749 L84.1870838,35.9380731 C84.1870838,37.5941901 82.8358429,38.9367382 81.1884505,38.9367382 L52.7163289,38.9367382 C51.0602295,38.9367382 49.7176956,37.5939459 49.7176956,35.9380731 L49.7176956,30.5222749 Z" id="path-6"></path>
    </defs>
    <g id="空页面" stroke="none" stroke-width="1" fill="none" fill-rule="evenodd">
        <g id="Artboard-Copy-6" transform="translate(-108.000000, -231.000000)">
            <g id="Group-7" transform="translate(108.000000, 231.000000)">
                <g id="Group-6" transform="translate(29.940179, 21.898381)">
                    <g id="Group"></g>
                </g>
                <g id="Group-8">
                    <ellipse id="Oval-3-Copy-4" fill="#FFFFFF" transform="translate(125.485504, 78.589916) scale(-1, 1) translate(-125.485504, -78.589916) " cx="125.485504" cy="78.589916" rx="2.1480042" ry="2.1480042"></ellipse>
                    <ellipse id="Oval-8" fill="#E3E3E3" cx="71.5" cy="114.839364" rx="71.5" ry="4.9231355"></ellipse>
                    <g id="Group-5" transform="translate(119.041492, 93.625945)">
                        <g id="Rectangle-6">
                            <use fill="#D8D8D8" fill-rule="evenodd" xlink:href="#path-1"></use>
                            <rect stroke="#979797" stroke-width="1" x="3.59842518" y="15.289406" width="1" height="4.82612962"></rect>
                        </g>
                        <ellipse id="Oval-10" fill="#D8D8D8" cx="3.76275996" cy="7.8428668" rx="3.76275996" ry="7.8428668"></ellipse>
                    </g>
                    <g id="Group-4" transform="translate(123.337500, 100.069958)">
                        <rect id="Rectangle-6-Copy" fill="#BDBDBD" x="3.09842518" y="9.41144016" width="1.35913727" height="4.35126859"></rect>
                        <ellipse id="Oval-10-Copy" fill="#CCCCCC" cx="3.99696837" cy="5.69602236" rx="3.99696837" ry="4.38766353"></ellipse>
                    </g>
                    <g id="Group-Copy" transform="translate(17.011292, 45.295851)"></g>
                    <g id="Group-3-Copy" transform="translate(9.493277, 102.217962)">
                        <g id="Rectangle" transform="translate(4.093733, 9.809266) scale(-1, 1) translate(-4.093733, -9.809266) ">
                            <use fill="#E0E0E0" fill-rule="evenodd" xlink:href="#path-2"></use>
                            <rect stroke="#BDBDBD" stroke-width="1" x="4.03544055" y="7.48218187" width="1" height="4.6541677"></rect>
                        </g>
                        <path d="M4.16388394,0.326781494 C4.49170693,0.333081801 4.84180651,1.27915465 4.84180651,1.27915465 L7.92202301,7.28860696 C7.92202301,7.28860696 8.29854301,7.75569868 8.08575421,7.99405546 C7.87296541,8.23241224 7.13773608,8.16713112 7.13773608,8.16713112 L1.11965517,8.16713112 C1.11965517,8.16713112 0.373124716,8.21741089 0.213335765,8.01492148 C0.0535468135,7.81243208 0.440884594,7.30697245 0.440884594,7.30697245 L3.54330573,1.25419925 C3.54330573,1.25419925 3.83606095,0.320481186 4.16388394,0.326781494 Z" id="Triangle" fill="#E0E0E0"></path>
                    </g>
                    <g id="Group-3" transform="translate(8.043750, 0.000000)">
                        <g id="Group-5">
                            <g id="Group-2-Copy" transform="translate(10.791830, 24.869004) scale(-1, 1) translate(-10.791830, -24.869004) translate(0.513705, 21.294004)" fill="#F5F5F5">
                                <ellipse id="Oval-4" cx="11.0833479" cy="3.43905757" rx="4.2040285" ry="3.43905757"></ellipse>
                                <ellipse id="Oval-4-Copy" cx="5.82831224" cy="4.83327009" rx="2.57974476" ry="2.04484504"></ellipse>
                                <ellipse id="Oval-4-Copy-2" cx="16.1472913" cy="5.0191651" rx="2.96192917" ry="2.04484504"></ellipse>
                                <path d="M0.178204363,6.99743392 L20.3806001,6.95324184 C20.3806001,6.95324184 21.0450295,5.00452385 19.0290858,4.64442601 C17.0131421,4.28432818 1.57203455,5.09009223 0.906955478,5.40839851 C0.241876401,5.72670479 0.178204363,6.99743392 0.178204363,6.99743392 Z" id="Path-28"></path>
                            </g>
                            <path d="M20.5982756,34.2198405 C24.5026612,34.2198405 34.2110832,20.8516929 34.2110832,13.5353845 C34.2110832,6.21907606 28.1164216,0.288036234 20.5982756,0.288036234 C13.0801296,0.288036234 6.98546801,6.21907606 6.98546801,13.5353845 C6.98546801,20.8516929 16.69389,34.2198405 20.5982756,34.2198405 Z" id="Oval-Copy-7" fill="#E0E0E0" transform="translate(20.598276, 17.253938) rotate(-1.000000) translate(-20.598276, -17.253938) "></path>
                            <path d="M20.1608541,34.1086325 C20.5679324,34.1086325 21.0938028,33.59348 21.6761391,32.7100832 C24.060284,29.0933655 27.390893,19.3042539 27.390893,13.4241765 C27.390893,6.10786812 24.1538943,0.17682829 20.1608541,0.17682829 C16.1678139,0.17682829 12.9308152,6.10786812 12.9308152,13.4241765 C12.9308152,19.17757 16.1194569,28.6733749 18.4901976,32.4678266 C19.1342116,33.4985931 19.7178692,34.1086325 20.1608541,34.1086325 Z" id="Oval-Copy-8" fill="#FBFBFB" transform="translate(20.160854, 17.142730) rotate(-1.000000) translate(-20.160854, -17.142730) "></path>
                            <polygon id="Path-24-Copy-2" fill="#FFFFFF" transform="translate(20.683573, 34.170087) rotate(15.000000) translate(-20.683573, -34.170087) " points="16.9917038 33.5268083 24.3754414 31.7850329 23.7965668 35.5062708 17.9397132 36.555141"></polygon>
                            <path d="M18.7402584,33.3366927 C18.7402584,33.3366927 23.2230303,32.9688221 24.1357424,31.951343 C25.0484544,30.9338639 17.7322911,32.1024178 17.7322911,32.1024178 L17.6695144,32.8072243 C17.6695144,32.8072243 17.3581713,33.0301005 17.5826526,33.167851 C17.807134,33.3056016 18.7402584,33.3366927 18.7402584,33.3366927 Z" id="Path-25-Copy-2" fill="#BDBDBD" transform="translate(20.857931, 32.435961) rotate(11.000000) translate(-20.857931, -32.435961) "></path>
                            <path d="M15.9047297,31.2784976 C15.9047297,31.2784976 18.0265178,30.3076084 20.3448873,30.3190364 C22.6632568,30.3304645 25.2870299,31.2784976 25.2870299,31.2784976 L24.2409779,32.4572955 C24.2409779,32.4572955 24.1309335,32.6260852 23.940612,32.752535 C23.7502905,32.8789848 23.5447603,32.9242541 23.5447603,32.9242541 C23.5447603,32.9242541 21.8688295,32.5641071 20.604886,32.562425 C19.3409424,32.5607429 18.1133749,32.8373964 18.1133749,32.8373964 C18.1133749,32.8373964 17.8426269,32.8614735 17.5968044,32.752535 C17.3509818,32.6435966 17.1266911,32.4572955 17.1266911,32.4572955 L15.9047297,31.2784976 Z" id="Rectangle-3-Copy-2" fill="#F2F2F2"></path>
                            <g id="Group-2" transform="translate(27.553018, 8.327878)" fill="#F5F5F5">
                                <ellipse id="Oval-4" cx="12.7037779" cy="3.97976411" rx="4.81867436" ry="3.97976411"></ellipse>
                                <ellipse id="Oval-4-Copy" cx="6.6804349" cy="5.593182" rx="2.95691381" ry="2.36634623"></ellipse>
                                <ellipse id="Oval-4-Copy-2" cx="18.5080901" cy="5.80830438" rx="3.39497512" ry="2.36634623"></ellipse>
                                <path d="M0.204258557,8.09760693 L23.3603257,8.04646675 C23.3603257,8.04646675 24.1218974,5.79136116 21.8112146,5.37464687 C19.5005318,4.95793257 1.80187232,5.89038304 1.03955601,6.2587351 C0.277239702,6.62708715 0.204258557,8.09760693 0.204258557,8.09760693 Z" id="Path-28"></path>
                            </g>
                        </g>
                        <rect id="Rectangle-7" fill="#E7E7E7" x="19.1514976" y="33.350517" width="1" height="5.35845012"></rect>
                        <rect id="Rectangle-7" fill="#DFDFDF" x="21.8307227" y="33.350517" width="1" height="5.35845012"></rect>
                        <rect id="Rectangle-5-Copy" fill="#E0E0E0" x="17.9648298" y="38.7279879" width="6.07415525" height="3.64838326"></rect>
                        <rect id="Rectangle-5" fill="#E0E0E0" x="17.3653476" y="37.8158921" width="7.14577789" height="1.23222156"></rect>
                        <path d="M17.9481081,39.0620359 L24.0477054,39.0620359" id="Path-3" stroke="#FFFFFF" stroke-width="0.2"></path>
                    </g>
                    <g id="Group" transform="translate(41.713340, 30.259821)">
                        <g id="Rectangle-2">
                            <use fill="#E0E0E0" fill-rule="evenodd" xlink:href="#path-3"></use>
                            <rect stroke="#BDBDBD" stroke-width="1" x="0.5" y="7.62111608" width="62.3661239" height="76.1454242" rx="6"></rect>
                        </g>
                        <g id="Rectangle-2-Copy">
                            <use fill="#F5F5F5" fill-rule="evenodd" xlink:href="#path-4"></use>
                            <path stroke="#E0E0E0" stroke-width="2" d="M16.5426342,5.4450328 C16.5426342,4.33966242 17.4361628,3.44788365 18.5513048,3.44788365 L21.8558093,3.44788365 L22.7620751,3.44788365 L22.8509852,2.5459897 C22.9294671,1.74987864 23.9212459,1 25.0885506,1 L38.2508208,1 C39.3420795,1 40.5350717,1.91217256 40.6458694,2.60565314 L40.7804329,3.44788365 L41.6333453,3.44788365 L44.819082,3.44788365 C45.9259996,3.44788365 46.8234898,4.34353098 46.8234898,5.4450328 L46.8234898,10.0582303 C46.8234898,11.160706 45.9257506,12.0553795 44.8155732,12.0553795 L18.5505508,12.0553795 C17.4414354,12.0553795 16.5426342,11.1594701 16.5426342,10.0582303 L16.5426342,5.4450328 Z"></path>
                        </g>
                        <ellipse id="Oval" fill="#E0E0E0" cx="13.1514597" cy="29.671317" rx="2.39117449" ry="2.37370536"></ellipse>
                        <ellipse id="Oval-Copy" fill="#E0E0E0" cx="13.1514597" cy="45.1004018" rx="2.39117449" ry="2.37370536"></ellipse>
                        <ellipse id="Oval-Copy-2" fill="#E0E0E0" cx="13.1514597" cy="60.5294867" rx="2.39117449" ry="2.37370536"></ellipse>
                        <rect id="Rectangle-4" fill="#E0E0E0" x="17.9338087" y="27.2976116" width="34.6720301" height="4.74741072" rx="2.37370536"></rect>
                        <rect id="Rectangle-4-Copy" fill="#E0E0E0" x="17.9338087" y="42.7266965" width="34.6720301" height="4.74741072" rx="2.37370536"></rect>
                        <rect id="Rectangle-4-Copy-2" fill="#E0E0E0" x="17.9338087" y="58.1557813" width="34.6720301" height="4.74741072" rx="2.37370536"></rect>
                    </g>
                    <g id="Rectangle-2">
                        <use fill="#FFFFFF" fill-rule="evenodd" xlink:href="#path-5"></use>
                        <rect stroke="#BDBDBD" stroke-width="1" x="33.6213235" y="33.0517713" width="66.6621324" height="82.0045703" rx="6"></rect>
                    </g>
                    <g id="Rectangle-2-Copy">
                        <use fill="#F5F5F5" fill-rule="evenodd" xlink:href="#path-6"></use>
                        <path stroke="#BDBDBD" stroke-width="1" d="M50.2176956,30.5222749 C50.2176956,29.1446522 51.3394625,28.0236098 52.7137362,28.0236098 L56.4588826,28.0236098 L56.9123525,28.0236098 L56.9565067,27.5722947 C57.0724921,26.3867697 58.3036897,25.3898109 59.7110543,25.3898109 L74.1651589,25.3898109 C75.5278241,25.3898109 76.9067872,26.4878175 77.0834378,27.6019115 L77.1503022,28.0236098 L77.5772685,28.0236098 L81.1916078,28.0236098 C82.5696114,28.0236098 83.6870838,29.1423348 83.6870838,30.5222749 L83.6870838,35.9380731 C83.6870838,37.3148232 82.5629305,38.4367382 81.1884505,38.4367382 L52.7163289,38.4367382 C51.3364636,38.4367382 50.2176956,37.3178954 50.2176956,35.9380731 L50.2176956,30.5222749 Z"></path>
                    </g>
                    <g id="Group-12" transform="translate(17.875000, 109.931250)">
                        <polyline id="Path-34" fill="#D8D8D8" points="-4.31688834e-13 5.99288538 5.21511758 -6.31459731e-15 8.43896718 6.0563264"></polyline>
                        <polygon id="Path-35" fill="#BDBDBD" points="5.2436509 0.0788149118 10.5240905 6.08355078 8.42575386 6.08355078"></polygon>
                    </g>
                </g>
                <rect id="Rectangle-3" fill="#F5F5F5" x="44.4350282" y="49.4895127" width="44.4350282" height="2.42372881" rx="1.21186441"></rect>
                <rect id="Rectangle-3-Copy" fill="#F5F5F5" x="44.4350282" y="56.7606992" width="44.4350282" height="2.42372881" rx="1.21186441"></rect>
                <rect id="Rectangle-3-Copy-3" fill="#F5F5F5" x="44.4350282" y="64.0318856" width="44.4350282" height="2.42372881" rx="1.21186441"></rect>
                <rect id="Rectangle-3-Copy-4" fill="#F5F5F5" x="44.4350282" y="71.303072" width="44.4350282" height="2.42372881" rx="1.21186441"></rect>
                <rect id="Rectangle-3-Copy-5" fill="#F5F5F5" x="44.4350282" y="78.5742585" width="44.4350282" height="2.42372881" rx="1.21186441"></rect>
                <rect id="Rectangle-3-Copy-6" fill="#F5F5F5" x="44.4350282" y="85.8454449" width="44.4350282" height="2.42372881" rx="1.21186441"></rect>
                <rect id="Rectangle-3-Copy-7" fill="#F5F5F5" x="44.4350282" y="93.1166314" width="44.4350282" height="2.42372881" rx="1.21186441"></rect>
                <rect id="Rectangle-3-Copy-8" fill="#F5F5F5" x="44.4350282" y="100.387818" width="44.4350282" height="2.42372881" rx="1.21186441"></rect>
                <text id="?" font-family=".PingFangSC-Medium, .PingFang SC" font-size="36" font-weight="400" fill="#BDBDBD">
                    <tspan x="56.7493697" y="85.9618697">?</tspan>
                </text>
            </g>
        </g>
    </g>
</svg>