<?xml version="1.0" encoding="UTF-8" standalone="no"?>
<svg width="112px" height="144px" viewBox="0 0 112 144" version="1.1" xmlns="http://www.w3.org/2000/svg" xmlns:xlink="http://www.w3.org/1999/xlink">
    <!-- Generator: Sketch 44 (41411) - http://www.bohemiancoding.com/sketch -->
    <title>xxxhdpi/Group</title>
    <desc>Created with Sketch.</desc>
    <defs></defs>
    <g id="空页面" stroke="none" stroke-width="1" fill="none" fill-rule="evenodd">
        <g id="订单详情-copy-2" transform="translate(-128.000000, -214.000000)">
            <g id="Group" transform="translate(128.000000, 215.000000)">
                <ellipse id="Oval-11" fill="#F5F5F5" transform="translate(55.737705, 87.140625) rotate(-360.000000) translate(-55.737705, -87.140625) " cx="55.7377049" cy="87.140625" rx="55.7377049" ry="55.859375"></ellipse>
                <g id="Group-26" transform="translate(58.863306, 115.711230) rotate(-10.000000) translate(-58.863306, -115.711230) translate(38.363306, 96.711230)">
                    <path d="M2.03491137,4.24150249 C1.79064387,4.7739481 2.25301206,5.35826574 2.25301206,5.35826574 L12.9803833,19.0428248 C12.9803833,19.0428248 13.5229633,19.8012372 14.3367211,20.0832206 C15.1504789,20.3652039 16.7110966,20.3355917 16.7110966,20.3355917 L37.2038454,18.5574665 C37.2038454,18.5574665 37.8814399,18.4269974 38.0111275,17.7655983 C38.1408151,17.1041992 37.5862516,16.6072184 37.5862516,16.6072184 L26.3607618,3.17463817 C26.3607618,3.17463817 25.7507312,2.5577573 25.2563812,2.36519125 C24.7620312,2.1726252 23.9094766,2.2197797 23.9094766,2.2197797 L3.03190491,3.66046278 C3.03190491,3.66046278 2.27917887,3.70905688 2.03491137,4.24150249 Z" id="Path-5" stroke="#BDBDBD" transform="translate(19.997232, 11.275584) rotate(-6.000000) translate(-19.997232, -11.275584) "></path>
                    <polygon id="Path-6" fill="#C1C1C1" transform="translate(29.494232, 10.018804) rotate(-6.000000) translate(-29.494232, -10.018804) " points="25.1497039 1.19457308 21.200223 18.0242519 21.0020819 18.843034 37.4645932 17.1989116 37.9863813 15.5774911"></polygon>
                    <polygon id="Path-7" fill="#E1E0E0" transform="translate(13.740647, 11.641020) rotate(-6.000000) translate(-13.740647, -11.641020) " points="25.4876049 2.88508505 21.4273922 20.2042413 16.1280343 20.6584938 14.1837243 20.486637 1.99368934 5.44833686 2.49335127 4.23741416 22.6767513 2.62354577"></polygon>
                    <polygon id="Path-8" fill="#ECECEC" transform="translate(8.269938, 21.282787) rotate(-6.000000) translate(-8.269938, -21.282787) " points="1.95459794 5.27808984 1.67936718 24.4135667 10.8540396 37.2874849 14.8605081 21.4100125 13.2614576 19.6049232 2.37895763 5.81579267"></polygon>
                    <polygon id="Path-9" fill="#DADADA" transform="translate(25.700784, 26.756899) rotate(-6.000000) translate(-25.700784, -26.756899) " points="11.4549623 35.4786725 30.7231515 33.7261059 39.946606 18.0351257 16.3168067 19.71874 15.5362638 19.7170026"></polygon>
                </g>
                <g id="Group-31" transform="translate(25.639344, 0.000000)">
                    <g id="Page-1-Copy-2" transform="translate(15.606557, 49.156250)" fill="#E0E0E0">
                        <path d="M3.86341065,-0.000179597983 C6.04429806,2.77999717 7.09525322,7.2106794 6.72026744,11.4195581 C6.5610695,13.5307324 6.08347568,15.5646796 5.47218046,17.480092 C4.84906977,19.3892186 4.0431302,21.1789125 3.20050047,22.8626436 C2.43125105,24.4880053 1.83363691,26.2803932 1.61909281,28.164376 C1.36910229,30.038481 1.49471941,31.9682613 1.86037718,33.7920788 C2.24095976,35.6167943 2.85847365,37.3499148 3.63207614,38.936663 C4.02198672,39.7268941 4.44734372,40.4847976 4.90255033,41.2013936 C5.34842894,41.9036217 6.93792088,44.0704713 6.93792088,44.0704713 L4.75952093,45.7353446 C4.16190679,44.8867442 3.70359084,44.0875332 3.23221569,43.207503 C2.77141227,42.3391468 2.34729901,41.432177 1.96298523,40.4874916 C1.18938274,38.6071007 0.576221921,36.5560918 0.244144967,34.3811602 C-0.0767383823,32.2098206 -0.104100528,29.8974966 0.298869259,27.7441167 C0.665770763,25.5727771 1.44683566,23.6331189 2.37528302,21.9556738 C3.27574638,20.3707216 4.09225769,18.7399719 4.76138653,16.9619519 C5.41248124,15.1848298 5.93982441,13.2918671 6.16556212,11.3064114 C6.41182143,9.32813961 6.3465254,7.26366081 5.94355562,5.32130862 C5.52566102,3.39601825 4.79123615,1.56411883 3.768265,0.167744516 L3.86341065,-0.000179597983 Z" id="Fill-1"></path>
                    </g>
                    <path d="M20.0655738,51.9953412 C28.1534483,51.9953412 40.1311475,35.3998137 40.1311475,22.8049742 C40.1311475,10.2101347 31.1474842,0 20.0655738,0 C8.98366338,0 0,10.2101347 0,22.8049742 C0,35.3998137 11.9776993,51.9953412 20.0655738,51.9953412 Z" id="Oval-8" fill="#E0E0E0"></path>
                    <path d="M20.0655738,51.9953412 C28.1534483,51.9953412 40.1311475,35.3998137 40.1311475,22.8049742 C40.1311475,10.2101347 31.1474842,0 20.0655738,0 C8.98366338,0 0,10.2101347 0,22.8049742 C0,35.3998137 11.9776993,51.9953412 20.0655738,51.9953412 Z" id="Oval-8" stroke="#E0E0E0" fill="#E0E0E0"></path>
                    <ellipse id="Oval-10" fill="#F5F5F5" transform="translate(31.468942, 13.985267) rotate(-26.000000) translate(-31.468942, -13.985267) " cx="31.4689416" cy="13.9852674" rx="1.82414307" ry="3.64879587"></ellipse>
                </g>
                <g id="Group-31-Copy" transform="translate(59.081967, 55.859375)">
                    <g id="Page-1-Copy-2" transform="translate(6.257824, 26.607511)" fill="#AEAEAE">
                        <path d="M3.20417788,-0.000102446033 C5.01292974,1.58576215 5.88455525,4.1131058 5.57355514,6.51392859 C5.44152193,7.71818171 5.04542229,8.87838304 4.53843538,9.97096999 C4.02164914,11.0599713 3.353231,12.080846 2.65438333,13.0412776 C2.01639472,13.9684142 1.52075442,14.9908256 1.34281903,16.0654845 C1.13548563,17.1345089 1.23966809,18.2352915 1.54293187,19.275631 C1.85857377,20.3164827 2.37071822,21.3050869 3.01231712,22.2101976 C3.33569534,22.6609602 3.68847158,23.0932824 4.06600405,23.5020421 C4.43580019,23.9026061 5.7540693,25.1386175 5.7540693,25.1386175 L3.94738046,26.0882922 C3.45174015,25.6042347 3.07162891,25.1483498 2.68068682,24.6463643 C2.29851256,24.1510377 1.94676783,23.6336852 1.6280314,23.0948191 C0.98643251,22.0222091 0.477898339,20.8522754 0.20248531,19.611654 C-0.0636441346,18.3730814 -0.086337343,17.0540887 0.247871727,15.8257608 C0.552167022,14.5871883 1.19995497,13.4807711 1.96997679,12.5239251 C2.71678965,11.6198389 3.39397562,10.6896289 3.94892772,9.67541318 C4.48892293,8.66170968 4.92628295,7.58192849 5.11350192,6.44938759 C5.31774079,5.32094453 5.26358654,4.14332738 4.92937747,3.03537353 C4.58279029,1.93715205 3.97368395,0.892202505 3.1252674,0.0956845953 L3.20417788,-0.000102446033 Z" id="Fill-1"></path>
                    </g>
                    <g id="Page-1-Copy-2" transform="translate(6.257824, 26.607511)" fill="#E0E0E0">
                        <path d="M3.20417788,-0.000102446033 C5.01292974,1.58576215 5.88455525,4.1131058 5.57355514,6.51392859 C5.44152193,7.71818171 5.04542229,8.87838304 4.53843538,9.97096999 C4.02164914,11.0599713 3.353231,12.080846 2.65438333,13.0412776 C2.01639472,13.9684142 1.52075442,14.9908256 1.34281903,16.0654845 C1.13548563,17.1345089 1.23966809,18.2352915 1.54293187,19.275631 C1.85857377,20.3164827 2.37071822,21.3050869 3.01231712,22.2101976 C3.33569534,22.6609602 3.68847158,23.0932824 4.06600405,23.5020421 C4.43580019,23.9026061 5.7540693,25.1386175 5.7540693,25.1386175 L3.94738046,26.0882922 C3.45174015,25.6042347 3.07162891,25.1483498 2.68068682,24.6463643 C2.29851256,24.1510377 1.94676783,23.6336852 1.6280314,23.0948191 C0.98643251,22.0222091 0.477898339,20.8522754 0.20248531,19.611654 C-0.0636441346,18.3730814 -0.086337343,17.0540887 0.247871727,15.8257608 C0.552167022,14.5871883 1.19995497,13.4807711 1.96997679,12.5239251 C2.71678965,11.6198389 3.39397562,10.6896289 3.94892772,9.67541318 C4.48892293,8.66170968 4.92628295,7.58192849 5.11350192,6.44938759 C5.31774079,5.32094453 5.26358654,4.14332738 4.92937747,3.03537353 C4.58279029,1.93715205 3.97368395,0.892202505 3.1252674,0.0956845953 L3.20417788,-0.000102446033 Z" id="Fill-1"></path>
                    </g>
                    <path d="M10.5901639,27.5750573 C14.8587644,27.5750573 21.1803279,18.7738338 21.1803279,12.0943234 C21.1803279,5.41481302 16.43895,0 10.5901639,0 C4.7413779,0 0,5.41481302 0,12.0943234 C0,18.7738338 6.32156351,27.5750573 10.5901639,27.5750573 Z" id="Oval-8" fill="#E0E0E0"></path>
                    <path d="M10.5901639,27.5750573 C14.8587644,27.5750573 21.1803279,18.7738338 21.1803279,12.0943234 C21.1803279,5.41481302 16.43895,0 10.5901639,0 C4.7413779,0 0,5.41481302 0,12.0943234 C0,18.7738338 6.32156351,27.5750573 10.5901639,27.5750573 Z" id="Oval-8" fill="#E0E0E0"></path>
                    <ellipse id="Oval-10" fill="#F5F5F5" transform="translate(16.082565, 7.738270) rotate(-21.000000) translate(-16.082565, -7.738270) " cx="16.0825649" cy="7.73827035" rx="1" ry="1.93509174"></ellipse>
                </g>
            </g>
        </g>
    </g>
</svg>