<?xml version="1.0" encoding="UTF-8" standalone="no"?>
<svg width="20px" height="34px" viewBox="0 0 20 34" version="1.1" xmlns="http://www.w3.org/2000/svg" xmlns:xlink="http://www.w3.org/1999/xlink">
    <!-- Generator: Sketch 43.1 (39012) - http://www.bohemiancoding.com/sketch -->
    <title>mdpi/op60－R</title>
    <desc>Created with Sketch.</desc>
    <defs>
        <polygon id="path-1" points="19.5392593 0.000369565217 19.5392593 33.3904391 0.00037037037 33.3904391 0.00037037037 0.000369565217"></polygon>
    </defs>
    <g id="0423首页－mobile" stroke="none" stroke-width="1" fill="none" fill-rule="evenodd" opacity="0.6">
        <g id="Artboard-2-Copy-51" transform="translate(-327.000000, -79.000000)">
            <g id="op60－R" transform="translate(327.000000, 79.000000)">
                <mask id="mask-2" fill="white">
                    <use xlink:href="#path-1"></use>
                </mask>
                <g id="Clip-2"></g>
                <path d="M14.0174074,17.2176739 L6.56925926,24.6503696 C6.42481481,24.7945 6.23518519,24.8669348 6.04555556,24.8669348 C5.85592593,24.8669348 5.6662963,24.7945 5.52185185,24.6503696 C5.23222222,24.3613696 5.23222222,23.8935 5.52185185,23.6052391 L12.4462963,16.6951087 L5.52185185,9.78497826 C5.23222222,9.49671739 5.23222222,9.02884783 5.52185185,8.73984783 C5.81074074,8.45158696 6.27962963,8.45158696 6.56925926,8.73984783 L14.0174074,16.1725435 C14.307037,16.4615435 14.307037,16.9286739 14.0174074,17.2176739 M17.5766667,0.000369565217 L1.96259259,0.000369565217 C0.878888889,0.000369565217 0.00037037037,1.06102174 0.00037037037,2.37002174 L0.00037037037,31.0209348 C0.00037037037,32.3291957 0.878888889,33.390587 1.96259259,33.390587 L17.5766667,33.390587 C18.6611111,33.390587 19.5396296,32.3291957 19.5396296,31.0209348 L19.5396296,2.37002174 C19.5396296,1.06102174 18.6611111,0.000369565217 17.5766667,0.000369565217" id="Fill-1" fill="#FEFEFE" mask="url(#mask-2)"></path>
            </g>
        </g>
    </g>
</svg>