<?xml version="1.0" encoding="UTF-8" standalone="no"?>
<svg width="116px" height="24px" viewBox="0 0 116 24" version="1.1" xmlns="http://www.w3.org/2000/svg" xmlns:xlink="http://www.w3.org/1999/xlink">
    <!-- Generator: Sketch 43.1 (39012) - http://www.bohemiancoding.com/sketch -->
    <title>xxhdpi/RT_logo</title>
    <desc>Created with Sketch.</desc>
    <defs>
        <polygon id="path-1" points="9.68312907e-18 1.66355692 9.68312907e-18 0.403116279 2.37895881 0.403116279 2.37895881 1.66355692 0 1.66355692"></polygon>
        <polygon id="path-3" points="23.4586369 0.0301101591 23.4586369 19.6413635 0.0368004173 19.6413635 0.0368004173 0.0301101591"></polygon>
    </defs>
    <g id="Symbols" stroke="none" stroke-width="1" fill="none" fill-rule="evenodd">
        <g id="header_mobile" transform="translate(-16.000000, -12.000000)">
            <g id="RT_logo" transform="translate(16.000000, 12.000000)">
                <path d="M17.5231009,23.9699559 L12.9859656,23.9699559 C12.517739,23.9699559 12.1519575,23.5634688 12.1979264,23.0948519 L12.3693249,21.3578629 C12.4015032,21.0313513 12.6740334,20.7834933 12.9997562,20.7834933 L17.5093102,20.7834933 C17.835033,20.7834933 18.1075632,21.0313513 18.1397415,21.3578629 L18.31114,23.0948519 C18.357109,23.5634688 17.9913275,23.9699559 17.5231009,23.9699559" id="Fill-1" fill="#FA564B"></path>
                <g id="Group-5" transform="translate(0.000000, 14.055900)">
                    <mask id="mask-2" fill="white">
                        <use xlink:href="#path-1"></use>
                    </mask>
                    <g id="Clip-4"></g>
                    <path d="M0.626228432,0.403116279 L1.75312439,0.403116279 C2.09854822,0.403116279 2.37895881,0.685343941 2.37895881,1.03300612 C2.37895881,1.38132925 2.09854822,1.66355692 1.75312439,1.66355692 L0.626228432,1.66355692 C0.280147912,1.66355692 -0.000262679711,1.38132925 -0.000262679711,1.03300612 C-0.000262679711,0.685343941 0.280147912,0.403116279 0.626228432,0.403116279" id="Fill-3" fill="#FA564B" mask="url(#mask-2)"></path>
                </g>
                <path d="M2.55948544,9.42055814 L3.11439633,9.42055814 C3.46047685,9.42055814 3.74023074,9.7027858 3.74023074,10.0511089 C3.74023074,10.3987711 3.46047685,10.6809988 3.11439633,10.6809988 L2.55948544,10.6809988 C2.21340492,10.6809988 1.93299433,10.3987711 1.93299433,10.0511089 C1.93299433,9.7027858 2.21340492,9.42055814 2.55948544,9.42055814" id="Fill-6" fill="#FA564B"></path>
                <g id="Group-10" transform="translate(1.215525, 0.073035)">
                    <mask id="mask-4" fill="white">
                        <use xlink:href="#path-3"></use>
                    </mask>
                    <g id="Clip-9"></g>
                    <path d="M14.0389424,19.4477038 C11.0594978,19.4477038 8.64481456,12.1163941 8.64481456,6.67673684 C8.64481456,1.23707956 11.0594978,0.222514076 14.0389424,0.222514076 C17.0183871,0.222514076 19.433727,1.23707956 19.433727,6.67673684 C19.433727,12.1163941 17.0183871,19.4477038 14.0389424,19.4477038 M14.0389424,0.0295152999 C8.83657075,0.0295152999 4.61924799,2.72488862 4.61924799,7.96097185 C4.61924799,8.41504774 4.65470975,8.87705508 4.72234977,9.34368911 L3.77735951,9.34368911 C3.43193569,9.34368911 3.1508684,9.62591677 3.1508684,9.97357895 C3.1508684,10.3219021 3.43193569,10.6041297 3.77735951,10.6041297 L4.97911919,10.6041297 L7.62364719,10.6041297 C7.96972771,10.6041297 8.2501383,10.8863574 8.2501383,11.2340196 C8.2501383,11.5830037 7.96972771,11.8645704 7.62364719,11.8645704 L5.37904905,11.8645704 L0.663291529,11.8645704 C0.317211009,11.8645704 0.0368004173,12.146798 0.0368004173,12.4944602 C0.0368004173,12.8434443 0.317211009,13.125672 0.663291529,13.125672 L5.91951256,13.125672 L6.78635561,13.125672 C7.13177943,13.125672 7.41219002,13.4072387 7.41219002,13.7555618 C7.41219002,14.1038849 7.13177943,14.3861126 6.78635561,14.3861126 L6.6090468,14.3861126 L3.04251302,14.3861126 C2.6964325,14.3861126 2.4160219,14.6683403 2.4160219,15.0160024 C2.4160219,15.3643256 2.6964325,15.6465532 3.04251302,15.6465532 L7.47129295,15.6465532 C9.2463511,17.9737748 11.6413334,19.6413635 14.0389424,19.6413635 C18.7533866,19.6413635 23.4586369,13.1970551 23.4586369,7.96097185 C23.4586369,2.72488862 19.2413141,0.0295152999 14.0389424,0.0295152999" id="Fill-8" fill="#FA564B" mask="url(#mask-4)"></path>
                </g>
                <path d="M18.7662983,6.76385067 C18.7662983,12.1790526 17.1941602,19.4786365 15.2542705,19.4786365 C13.3150376,19.4786365 11.7428995,12.1790526 11.7428995,6.76385067 C11.7428995,1.34864871 13.3150376,0.33804896 15.2542705,0.33804896 C17.1941602,0.33804896 18.7662983,1.34864871 18.7662983,6.76385067" id="Fill-11" fill="#FA564B"></path>
                <path d="M33.7513878,13.2203868 L37.0316007,13.2203868 C37.5595869,13.2203868 38.0258434,13.114634 38.4290567,12.9024676 C38.8316134,12.6909621 39.0332201,12.3525532 39.0332201,11.8872411 C39.0332201,11.421929 38.8316134,11.0841812 38.4290567,10.8720147 C38.0258434,10.6605092 37.5595869,10.5547564 37.0316007,10.5547564 L33.7513878,10.5547564 L33.7513878,13.2203868 Z M42.313433,19.1405581 C42.313433,19.3632999 42.1820931,19.4736793 41.9200701,19.4736793 L40.0721183,19.4736793 C39.8777354,19.4736793 39.6629947,19.4029572 39.4292098,19.2608519 C39.1960815,19.1187466 39.018116,18.9468984 38.8946565,18.7453072 L37.5858549,16.6837895 C37.0467048,15.8371065 36.3946024,15.4127736 35.6302044,15.4127736 L33.7513878,15.4127736 L33.7513878,18.7453072 C33.7513878,18.9468984 33.681121,19.1187466 33.5392739,19.2608519 C33.3980836,19.4029572 33.2279985,19.4736793 33.0277052,19.4736793 L31.58034,19.4736793 C31.3800467,19.4736793 31.2079915,19.4029572 31.0641743,19.2608519 C30.9203572,19.1187466 30.848777,18.9468984 30.848777,18.7453072 L30.848777,9.09801224 C30.848777,8.8957601 30.9183871,8.72325092 31.0562939,8.57850184 C31.1948575,8.43375275 31.3642859,8.36104774 31.5645792,8.36104774 L37.9168313,8.36104774 C39.092323,8.36104774 40.0557009,8.67896695 40.8082782,9.31480539 C41.5595422,9.94998286 41.9358309,10.8079021 41.9358309,11.8872411 C41.9358309,13.3909131 40.9685129,14.3340955 39.0332201,14.7161273 C39.341212,14.8298115 39.6262195,15.0241322 39.8875858,15.3004113 C40.1496089,15.5773513 40.4497204,15.9792118 40.7885773,16.5059927 L42.1899735,18.7453072 C42.2720609,18.8900563 42.313433,19.0215863 42.313433,19.1405581 L42.313433,19.1405581 Z" id="Fill-13" fill="#FA564B"></path>
                <path d="M45.5855028,14.4138727 L49.1658273,14.4138727 C49.1146047,13.1944113 48.5202919,12.5843501 47.3828887,12.5843501 C46.2461423,12.5843501 45.6472325,13.1944113 45.5855028,14.4138727 M44.0685275,18.4979119 C43.2778615,17.7431016 42.8831853,16.657153 42.8831853,15.2387442 C42.8831853,13.8209963 43.2804883,12.7304211 44.0764079,11.9690012 C44.8723274,11.2062595 45.9755822,10.8255496 47.3868289,10.8255496 C48.7987324,10.8255496 49.8993604,11.1963452 50.6900263,11.9379364 C51.4806922,12.6795275 51.8760252,13.7416818 51.8760252,15.1263819 L51.8760252,15.5678996 C51.8760252,15.708022 51.830713,15.8230282 51.7414019,15.9135789 C51.651434,16.0034688 51.5371684,16.0490747 51.3986048,16.0490747 L45.6006069,16.0490747 C45.6524861,16.6842521 45.8330784,17.1469204 46.1436972,17.4357576 C46.454316,17.7252558 46.9507806,17.8700049 47.6337479,17.8700049 C48.3160584,17.8700049 48.7829716,17.7146805 49.0344874,17.4046928 C49.2860032,17.095366 49.596622,16.9373978 49.9663437,16.9327711 L51.1135973,16.9327711 C51.2521609,16.9327711 51.3664266,16.977716 51.4563944,17.0682668 C51.5463622,17.1581567 51.5910177,17.2731628 51.5910177,17.4126242 C51.5910177,18.8951457 50.1869947,19.6334321 47.3789485,19.6294663 C45.9624482,19.6294663 44.8591934,19.2514002 44.0685275,18.4979119" id="Fill-15" fill="#FA564B"></path>
                <path d="M56.0028548,13.3017503 C55.7099669,13.7016279 55.5641797,14.3440759 55.5641797,15.2271114 C55.5641797,16.1108078 55.7020865,16.7539168 55.9798703,17.1570991 C56.2569974,17.5596206 56.6733448,17.7612118 57.2308825,17.7612118 C57.7877635,17.7612118 58.4359256,17.5292166 59.1747123,17.0639045 L59.1747123,13.0115912 C58.5127595,12.8047124 57.9558785,12.7009425 57.5040694,12.7009425 C56.7961475,12.7009425 56.295086,12.9018727 56.0028548,13.3017503 M56.5879739,19.6290698 C55.5149272,19.6290698 54.617876,19.2490208 53.8968202,18.4902448 C53.1757644,17.7301469 52.8152365,16.6415545 52.8152365,15.2231457 C52.8152365,13.8053978 53.1882417,12.7181273 53.9355655,11.9613341 C54.6822326,11.20388 55.6869825,10.825814 56.9498152,10.825814 C57.6019176,10.825814 58.343331,10.9573439 59.1747123,11.2210649 L59.1747123,8.84162791 C59.1747123,8.70216646 59.2193679,8.58716034 59.3099924,8.49660955 C59.3993035,8.40671971 59.5109424,8.36111383 59.6442523,8.36111383 L61.3615209,8.36111383 C61.5000845,8.36111383 61.6143501,8.40671971 61.704318,8.49660955 C61.7936291,8.58716034 61.8389413,8.70216646 61.8389413,8.84162791 L61.8389413,19.0011628 C61.8389413,19.1353366 61.7936291,19.2476989 61.704318,19.3382497 C61.6143501,19.4294614 61.5000845,19.4737454 61.3615209,19.4737454 L59.8832909,19.4737454 C59.7447273,19.4737454 59.631775,19.4294614 59.544434,19.3382497 C59.457093,19.2476989 59.4137509,19.1353366 59.4137509,19.0011628 L59.4137509,18.7612362 C58.6020706,19.3402326 57.6603638,19.6290698 56.5879739,19.6290698" id="Fill-17" fill="#FA564B"></path>
                <path d="M67.7519929,17.7922105 L68.806652,17.6990159 L69.0916595,17.6990159 C69.230223,17.6990159 69.3444887,17.7432999 69.4344565,17.8312069 C69.5244243,17.9184529 69.5690799,18.0321371 69.5690799,18.1715985 L69.5690799,19.0010967 C69.5690799,19.1147809 69.5244243,19.2165679 69.4344565,19.3071187 C69.3444887,19.3983305 69.230223,19.4538507 69.0916595,19.4736793 C68.5682702,19.5767882 67.8853029,19.6290037 67.0434144,19.6290037 C64.8369049,19.6290037 63.7329934,18.4670453 63.7329934,16.1418066 L63.7329934,8.84156181 C63.7329934,8.70210037 63.7776489,8.58709425 63.8676167,8.49720441 C63.9575845,8.40665361 64.0692234,8.36104774 64.2025333,8.36104774 L65.9276824,8.36104774 C66.0609923,8.36104774 66.1726312,8.40665361 66.2619423,8.49720441 C66.3519101,8.58709425 66.3972223,8.70210037 66.3972223,8.84156181 L66.3972223,11.4298605 L68.5452857,11.4298605 C68.6785956,11.4298605 68.7902345,11.4741444 68.8802023,11.5613905 C68.9695134,11.6499584 69.0148257,11.7636426 69.0148257,11.903104 L69.0148257,12.8244749 C69.0148257,12.9645973 68.9695134,13.0782815 68.8802023,13.1661885 C68.7902345,13.2540955 68.6785956,13.2977185 68.5452857,13.2977185 L66.3972223,13.2977185 L66.3972223,16.1418066 C66.3972223,16.6685875 66.5200251,17.0757356 66.766944,17.36259 C67.0132063,17.6487834 67.3415559,17.7922105 67.7519929,17.7922105" id="Fill-19" fill="#FA564B"></path>
                <path d="M72.9799102,14.4138727 L76.5602347,14.4138727 C76.5090122,13.1944113 75.9146993,12.5843501 74.7779529,12.5843501 C73.6405497,12.5843501 73.04164,13.1944113 72.9799102,14.4138727 M71.4629349,18.4979119 C70.6729257,17.7431016 70.2775927,16.657153 70.2775927,15.2387442 C70.2775927,13.8209963 70.6755525,12.7304211 71.4708153,11.9690012 C72.2667348,11.2062595 73.3699896,10.8255496 74.7818931,10.8255496 C76.1931398,10.8255496 77.2944245,11.1963452 78.0844337,11.9379364 C78.8750997,12.6795275 79.2704326,13.7416818 79.2704326,15.1263819 L79.2704326,15.5678996 C79.2704326,15.708022 79.2257771,15.8230282 79.1358093,15.9135789 C79.0458415,16.0034688 78.9315758,16.0490747 78.7930123,16.0490747 L72.9950143,16.0490747 C73.0468936,16.6842521 73.2274859,17.1469204 73.5381046,17.4357576 C73.8487234,17.7252558 74.345188,17.8700049 75.0281553,17.8700049 C75.7104658,17.8700049 76.1780357,17.7146805 76.4295516,17.4046928 C76.6810674,17.095366 76.9910294,16.9373978 77.3607511,16.9327711 L78.5080048,16.9327711 C78.6465683,16.9327711 78.760834,16.977716 78.8508018,17.0682668 C78.9407696,17.1581567 78.9854251,17.2731628 78.9854251,17.4126242 C78.9854251,18.8951457 77.5814021,19.6334321 74.7740127,19.6294663 C73.3575123,19.6294663 72.2536008,19.2514002 71.4629349,18.4979119" id="Fill-21" fill="#FA564B"></path>
                <path d="M83.1933571,16.2269376 C82.9851834,16.4027515 82.881425,16.629459 82.881425,16.9083819 C82.881425,17.1879657 82.9891236,17.417978 83.2051777,17.5984186 C83.4205751,17.7795202 83.7259402,17.86941 84.1212732,17.86941 C84.9112824,17.86941 85.6737103,17.6374149 86.4079001,17.1727638 L86.4079001,15.9638776 L84.0437827,15.9638776 C83.6845682,15.9638776 83.4008741,16.0511236 83.1933571,16.2269376 M81.2298263,18.9157013 C80.5501425,18.4411359 80.2099723,17.7689449 80.2099723,16.9011114 C80.2099723,16.0332778 80.5501425,15.3663745 81.2298263,14.9017234 C81.9101667,14.4370722 82.7862036,14.2037552 83.8592502,14.2037552 L86.4079001,14.2037552 C86.4079001,13.5996426 86.2818138,13.1792754 86.030298,12.9413317 C85.7787822,12.703388 85.3387937,12.5844162 84.7103324,12.5844162 C84.0812145,12.5844162 83.6399126,12.7417234 83.38577,13.053694 C83.1316274,13.3663256 82.8196952,13.5223109 82.4506302,13.5223109 L81.3033766,13.5223109 C81.164813,13.5223109 81.0498907,13.477366 80.9605796,13.3868152 C80.8706118,13.2962644 80.8259562,13.1839021 80.8259562,13.0497283 C80.8259562,11.5672069 82.224069,10.8256157 85.0222646,10.8256157 C86.2437253,10.8256157 87.2241773,11.1005728 87.962964,11.6511481 C88.7024074,12.2010624 89.0721291,13.0523721 89.0721291,14.2037552 L89.0721291,19.0009645 C89.0721291,19.1404259 89.0281302,19.2541102 88.9407892,19.3420171 C88.8534482,19.4305851 88.7404959,19.4735471 88.6019324,19.4735471 L87.1164786,19.4735471 C86.9779151,19.4735471 86.8643061,19.4292632 86.7776218,19.3380514 C86.6902808,19.2475006 86.6462819,19.1351383 86.6462819,19.0009645 L86.6462819,18.7610379 C85.8352583,19.344661 84.9001185,19.6348201 83.8402059,19.6328372 C82.7802933,19.6295324 81.9101667,19.3909278 81.2298263,18.9157013" id="Fill-23" fill="#FA564B"></path>
                <path d="M91.8552206,18.1485312 C90.943722,17.2245165 90.4886294,15.8100734 90.4886294,13.9058629 C90.4886294,12.0023133 90.9647364,10.591836 91.9169503,9.6750918 C92.8685076,8.75834761 94.2968285,8.29964504 96.2012564,8.29964504 L97.918525,8.29964504 C99.0526447,8.29964504 100.075782,8.57195838 100.986624,9.11724602 C101.897466,9.66187271 102.353215,10.3426561 102.353215,11.1589351 C102.353215,11.4642962 102.263904,11.6824113 102.083969,11.8139412 C101.904033,11.9454712 101.730008,12.0115667 101.560579,12.0115667 L100.643827,12.0115667 C100.202525,12.0115667 99.851191,11.7584211 99.589168,11.2514688 C99.327145,10.7458384 98.6809529,10.4926928 97.6492783,10.4926928 L96.2787469,10.4926928 C95.1544778,10.4926928 94.3920499,10.7352632 93.9914634,11.2210649 C93.5915335,11.7068666 93.3912402,12.5998164 93.3912402,13.9018972 C93.3912402,15.203978 93.5705191,16.1041983 93.9303903,16.6025581 C94.2896048,17.1015789 94.9312,17.3507589 95.8551759,17.3507589 L97.4332243,17.3507589 C98.2600087,17.3507589 98.8503813,17.1921297 99.2043422,16.8735496 C99.5583031,16.5562913 99.7408655,16.1002326 99.750716,15.5060343 L98.0111196,15.5060343 C97.8108264,15.5060343 97.6400845,15.4353121 97.4988942,15.2932069 C97.3577039,15.1511016 97.2867803,14.9792534 97.2867803,14.7776622 L97.2867803,14.1728886 C97.2867803,13.9719584 97.3577039,13.8001102 97.4988942,13.6580049 C97.6400845,13.5158996 97.8108264,13.4451775 98.0111196,13.4451775 L101.875795,13.4451775 C102.076088,13.4451775 102.24683,13.5158996 102.38802,13.6580049 C102.529211,13.8001102 102.599478,13.9719584 102.599478,14.1728886 L102.599478,15.0334517 C102.599478,16.4802815 102.168683,17.5920073 101.306437,18.369951 C100.44419,19.1472338 99.178731,19.5358752 97.5100581,19.5358752 L95.7783421,19.5358752 C94.0735508,19.5358752 92.7660625,19.0732069 91.8552206,18.1485312" id="Fill-25" fill="#FA564B"></path>
                <path d="M112.262545,11.1510698 C111.743752,10.5317552 110.906461,10.2211065 109.7487,10.2211065 C108.590939,10.2211065 107.751677,10.5317552 107.230915,11.1510698 C106.709496,11.7710453 106.449443,12.69506 106.449443,13.921131 C106.449443,15.1485239 106.709496,16.0705557 107.230915,16.6878874 C107.751677,17.30588 108.590939,17.6138849 109.7487,17.6138849 C110.906461,17.6138849 111.743752,17.30588 112.262545,16.6878874 C112.781337,16.0705557 113.040077,15.1485239 113.040077,13.921131 C113.040077,12.69506 112.781337,11.7710453 112.262545,11.1510698 M114.368579,18.3237503 C113.318517,19.2504088 111.778557,19.714399 109.7487,19.714399 C107.718842,19.714399 106.176912,19.2504088 105.12488,18.3237503 C104.072848,17.3957699 103.546832,15.9277895 103.546832,13.9178262 C103.546832,11.9085239 104.072848,10.4412044 105.12488,9.51586781 C106.176912,8.59119217 107.718842,8.12918482 109.7487,8.12918482 C111.778557,8.12918482 113.318517,8.59119217 114.368579,9.51586781 C115.417985,10.4412044 115.942687,11.9085239 115.942687,13.9178262 C115.942687,15.9277895 115.417985,17.3957699 114.368579,18.3237503" id="Fill-27" fill="#FA564B"></path>
            </g>
        </g>
    </g>
</svg>