<?xml version="1.0" encoding="UTF-8" standalone="no"?>
<svg width="178px" height="52px" viewBox="0 0 178 52" version="1.1" xmlns="http://www.w3.org/2000/svg" xmlns:xlink="http://www.w3.org/1999/xlink">
    <!-- Generator: Sketch 43.1 (39012) - http://www.bohemiancoding.com/sketch -->
    <title>xxxhdpi/Group 2</title>
    <desc>Created with Sketch.</desc>
    <defs></defs>
    <g id="0425套餐详情页－mobile" stroke="none" stroke-width="1" fill="none" fill-rule="evenodd">
        <g id="Artboard-2-Copy-24" transform="translate(-100.000000, -533.000000)">
            <g id="Group-2" transform="translate(100.000000, 533.000000)">
                <path d="M46.5049492,16 L17.4950508,16 C16.6692881,16 16,16.6202033 16,17.3850957 L16,34.6149043 C16,35.3797967 16.6692881,36 17.4950508,36 L46.5049492,36 C47.3307119,36 48,35.3797967 48,34.6149043 L48,17.3850957 C48,16.6202033 47.3307119,16 46.5049492,16 Z M39.8644068,29.3133971 L44.7457627,29.3133971 L44.7457627,32.5789474 L39.8644068,32.5789474 L39.8644068,29.3133971 Z M16.8135593,19.7679426 L47.1864407,19.7679426 L47.1864407,23.284689 L16.8135593,23.284689 L16.8135593,19.7679426 Z" id="Imported-Layers-Copy-4" fill="#F6A623"></path>
                <rect id="Rectangle-4" stroke="#FA564B" stroke-width="2" x="1" y="1" width="176" height="50" rx="1"></rect>
                <polygon id="Rectangle-5" fill="#FA564B" points="177 27 177 51 153 51"></polygon>
                <g id="check" transform="translate(161.000000, 39.000000)" fill="#FFFFFF">
                    <polygon id="Shape" points="4.73846154 8.96923077 1.18461538 5.41538462 0 6.6 4.73846154 11.3384615 14.8923077 1.18461538 13.7076923 8.8817842e-16"></polygon>
                </g>
            </g>
        </g>
    </g>
</svg>